<svg width="1440" height="858" viewBox="0 0 1440 858" fill="none" xmlns="http://www.w3.org/2000/svg">
<g clip-path="url(#clip0_2621_14360)">
<rect width="1440" height="858" fill="white"/>
<g opacity="0.3">
<path d="M1994.82 -68.7666C1994.82 -68.7666 1743.98 173.32 1209.07 178.856C794.893 183.156 606.144 336.095 516.164 728.241C426.137 1120.38 416.466 1329.66 -65.7169 1449.9" stroke="#D8A5B7" stroke-width="0.589878" stroke-miterlimit="10"/>
<path d="M1990.57 -73.7646C1990.57 -73.7646 1732.4 163.25 1205.14 179.2C796.017 191.577 615.286 351.652 517.839 739.353C420.407 1127.08 410.753 1326.26 -68.0697 1449.52" stroke="#D8A5B7" stroke-width="0.589878" stroke-miterlimit="10"/>
<path d="M1986.35 -78.7315C1986.35 -78.7315 1720.73 153.236 1201.22 179.551C797.102 199.999 624.455 367.176 519.538 750.498C414.653 1133.8 405.047 1322.86 -70.4301 1449.19" stroke="#D8A5B7" stroke-width="0.589878" stroke-miterlimit="10"/>
<path d="M1982.09 -83.6837C1982.09 -83.6837 1708.97 143.295 1197.29 179.9C798.136 208.48 633.59 382.719 521.267 761.624C408.928 1140.5 399.339 1319.45 -72.7279 1448.82" stroke="#D8A5B7" stroke-width="0.589878" stroke-miterlimit="10"/>
<path d="M1977.85 -88.6706C1977.85 -88.6706 1697.17 133.353 1193.36 180.257C799.079 216.955 642.745 398.296 522.968 772.776C403.19 1147.26 393.635 1316.05 -75.0529 1448.47" stroke="#D8A5B7" stroke-width="0.589878" stroke-miterlimit="10"/>
<path d="M1973.62 -93.6289C1973.62 -93.6289 1685.29 123.489 1189.47 180.6C800.041 225.461 651.922 413.838 524.69 783.889C397.458 1153.94 387.952 1312.61 -77.4029 1448.07" stroke="#D8A5B7" stroke-width="0.589878" stroke-miterlimit="10"/>
<path d="M1969.38 -98.609C1969.38 -98.609 1673.33 113.636 1185.55 180.965C800.879 234.04 661.073 429.402 526.402 795.049C391.73 1160.7 382.257 1309.2 -79.7481 1447.73" stroke="#9D355A" stroke-width="0.589878" stroke-miterlimit="10"/>
<path d="M1965.15 -103.558C1965.15 -103.558 1661.29 103.889 1181.63 181.334C801.651 242.661 670.27 444.981 528.143 806.195C386.016 1167.41 376.56 1305.8 -82.0301 1447.37" stroke="#9D355A" stroke-width="0.589878" stroke-miterlimit="10"/>
<path d="M1960.89 -108.485C1960.89 -108.485 1649.15 94.2412 1177.73 181.734C802.396 251.373 679.442 460.584 529.875 817.39C380.277 1174.15 370.87 1302.4 -84.3511 1446.99" stroke="#9D355A" stroke-width="0.589878" stroke-miterlimit="10"/>
<path d="M1956.66 -113.446C1956.66 -113.446 1636.97 84.6586 1173.8 182.091C803.02 260.095 688.607 476.171 531.568 828.514C374.545 1180.88 365.187 1298.99 -86.6804 1446.66" stroke="#9D355A" stroke-width="0.589878" stroke-miterlimit="10"/>
<path d="M1952.43 -118.375C1952.43 -118.375 1624.74 75.1665 1169.92 182.462C803.643 268.892 697.804 491.747 533.357 839.659C368.877 1187.59 359.536 1295.58 -88.9592 1446.27" stroke="#9D355A" stroke-width="0.589878" stroke-miterlimit="10"/>
<path d="M1948.19 -123.327C1948.19 -123.327 1612.46 65.7104 1166.01 182.852C804.227 277.752 707.013 507.326 535.092 850.839C363.171 1194.35 353.864 1292.17 -91.2422 1445.91" stroke="#8F1943" stroke-width="0.589878" stroke-miterlimit="10"/>
<path d="M1943.97 -128.235C1943.97 -128.235 1600.11 56.4403 1162.14 183.242C804.778 286.714 716.238 522.947 536.861 862.016C357.517 1201.07 348.226 1288.76 -93.5218 1445.57" stroke="#8F1943" stroke-width="0.589878" stroke-miterlimit="10"/>
<path d="M1939.74 -133.144C1939.74 -133.144 1587.72 47.2532 1158.24 183.673C805.229 295.794 725.431 538.584 538.598 873.206C351.797 1207.81 342.524 1285.37 -95.8003 1445.21" stroke="#8F1943" stroke-width="0.589878" stroke-miterlimit="10"/>
<path d="M1935.47 -138.047C1935.47 -138.047 1575.27 38.1811 1154.3 184.083C805.627 304.923 734.573 554.2 540.331 884.38C346.09 1214.56 336.85 1281.95 -98.1126 1444.86" stroke="#8F1943" stroke-width="0.589878" stroke-miterlimit="10"/>
<path d="M1931.25 -142.934C1931.25 -142.934 1562.82 29.2507 1150.43 184.49C806.105 314.115 743.812 569.837 542.114 895.565C340.417 1221.29 331.226 1278.53 -100.356 1444.46" stroke="#8F1943" stroke-width="0.589878" stroke-miterlimit="10"/>
<path d="M1927.03 -147.81C1927.03 -147.81 1550.38 20.4229 1146.55 184.949C806.504 323.462 753.055 585.482 543.87 906.773C334.718 1228.05 325.544 1275.15 -102.642 1444.13" stroke="#8F1943" stroke-width="0.589878" stroke-miterlimit="10"/>
<path d="M1922.79 -152.707C1922.79 -152.707 1537.92 11.7086 1142.67 185.343C806.92 332.837 762.27 601.078 545.646 917.937C329.053 1234.78 319.914 1271.7 -104.874 1443.73" stroke="#8F1943" stroke-width="0.589878" stroke-miterlimit="10"/>
<path d="M1918.56 -157.563C1918.56 -157.563 1525.49 3.12672 1138.79 185.818C807.352 342.385 771.503 616.778 547.457 929.161C323.41 1241.54 314.32 1268.31 -107.101 1443.41" stroke="#8F1943" stroke-width="0.589878" stroke-miterlimit="10"/>
<path d="M1914.29 -162.414C1914.29 -162.414 1513.02 -5.31643 1134.86 186.27C807.775 351.985 780.668 632.427 549.183 940.373C317.698 1248.32 308.61 1264.92 -109.377 1443.05" stroke="#9D355A" stroke-width="0.589878" stroke-miterlimit="10"/>
<path d="M1910.07 -167.254C1910.07 -167.254 1500.67 -13.6914 1131.02 186.739C808.274 361.711 789.927 648.089 551.004 951.596C312.066 1255.08 303.027 1261.53 -111.604 1442.69" stroke="#9D355A" stroke-width="0.589878" stroke-miterlimit="10"/>
<path d="M1905.84 -172.058C1905.84 -172.058 1488.34 -21.873 1127.14 187.228C808.817 371.513 799.199 663.771 552.779 962.799C306.39 1261.81 297.416 1258.13 -113.824 1442.3" stroke="#9D355A" stroke-width="0.589878" stroke-miterlimit="10"/>
<path d="M1901.6 -176.857C1901.6 -176.857 1476.1 -30.0106 1123.28 187.698C809.414 381.409 808.45 679.415 554.629 973.974C300.808 1268.53 291.835 1254.69 -115.993 1441.9" stroke="#9D355A" stroke-width="0.589878" stroke-miterlimit="10"/>
<path d="M1897.38 -181.619C1897.38 -181.619 1463.9 -38.0205 1119.43 188.242C810.127 391.417 817.722 695.151 556.455 985.229C295.188 1275.31 286.265 1251.31 -118.149 1441.56" stroke="#9D355A" stroke-width="0.589878" stroke-miterlimit="10"/>
<path d="M1893.14 -186.389C1893.14 -186.389 1451.8 -45.9735 1115.59 188.731C810.889 401.442 826.981 710.8 558.27 996.396C289.59 1282.04 280.669 1247.89 -120.33 1441.16" stroke="#9D355A" stroke-width="0.589878" stroke-miterlimit="10"/>
<path d="M1888.87 -191.116C1888.87 -191.116 1439.78 -53.7999 1111.7 189.303C811.694 411.606 836.206 726.526 560.067 1007.66C283.929 1288.8 275.089 1244.48 -122.54 1440.77" stroke="#9D355A" stroke-width="0.589878" stroke-miterlimit="10"/>
<path d="M1884.63 -195.858C1884.63 -195.858 1427.85 -61.6098 1107.83 189.83C812.62 421.763 845.473 742.183 561.908 1018.86C278.328 1295.51 269.506 1241.06 -124.705 1440.38" stroke="#9D355A" stroke-width="0.589878" stroke-miterlimit="10"/>
<path d="M1880.37 -200.617C1880.37 -200.617 1416.04 -69.4128 1103.99 190.344C813.669 431.988 854.753 757.863 563.749 1030.05C272.745 1302.24 263.958 1237.61 -126.834 1439.96" stroke="#9D355A" stroke-width="0.589878" stroke-miterlimit="10"/>
<path d="M1876.11 -205.351C1876.11 -205.351 1404.31 -77.1333 1100.1 190.872C814.777 442.237 863.981 773.524 565.539 1041.22C267.098 1308.92 258.36 1234.15 -129.042 1439.54" stroke="#AC4D6F" stroke-width="0.589878" stroke-miterlimit="10"/>
<path d="M1871.84 -210.086C1871.84 -210.086 1392.71 -84.857 1096.25 191.376C816.006 452.476 873.202 789.171 567.372 1052.39C261.542 1315.6 252.775 1230.7 -131.173 1439.09" stroke="#AC4D6F" stroke-width="0.589878" stroke-miterlimit="10"/>
<path d="M1867.52 -214.829C1867.52 -214.829 1381.14 -92.5733 1092.32 191.911C817.339 462.748 882.432 804.832 569.169 1063.56C255.906 1322.28 247.188 1227.24 -133.383 1438.64" stroke="#AC4D6F" stroke-width="0.589878" stroke-miterlimit="10"/>
<path d="M1863.24 -219.56C1863.24 -219.56 1369.75 -100.28 1088.43 192.428C818.747 473.005 891.673 820.442 570.962 1074.72C250.267 1328.95 241.6 1223.77 -135.547 1438.19" stroke="#AC4D6F" stroke-width="0.589878" stroke-miterlimit="10"/>
<path d="M1858.93 -224.317C1858.93 -224.317 1358.45 -108.039 1084.55 192.923C820.309 483.235 900.924 836.065 572.768 1085.82C244.66 1335.58 235.994 1220.26 -137.726 1437.69" stroke="#AC4D6F" stroke-width="0.589878" stroke-miterlimit="10"/>
<path d="M1854.63 -229.051C1854.63 -229.051 1347.23 -115.784 1080.64 193.43C821.959 493.471 910.119 851.666 574.584 1096.93C239.049 1342.2 230.448 1216.78 -139.86 1437.2" stroke="#AC4D6F" stroke-width="0.589878" stroke-miterlimit="10"/>
<path d="M1850.33 -233.784C1850.33 -233.784 1336.12 -123.554 1076.77 193.916C823.721 503.673 919.362 867.265 576.401 1108.04C233.441 1348.81 224.89 1213.26 -142.037 1436.68" stroke="#AC4D6F" stroke-width="0.589878" stroke-miterlimit="10"/>
<path d="M1845.99 -238.544C1845.99 -238.544 1325.09 -131.404 1072.84 194.414C825.548 513.855 928.541 882.842 578.173 1119.15C227.79 1355.43 219.242 1209.74 -144.241 1436.2" stroke="#9D355A" stroke-width="0.589878" stroke-miterlimit="10"/>
<path d="M1841.63 -243.26C1841.63 -243.26 1314.13 -139.261 1068.88 194.928C827.471 523.981 937.75 898.394 579.945 1130.25C222.156 1362.06 213.658 1206.25 -146.411 1435.69" stroke="#9D355A" stroke-width="0.589878" stroke-miterlimit="10"/>
<path d="M1837.3 -248.015C1837.3 -248.015 1303.25 -147.191 1064.99 195.407C829.459 534.067 946.943 913.98 581.736 1141.3C216.529 1368.61 208.081 1202.69 -148.558 1435.13" stroke="#9D355A" stroke-width="0.589878" stroke-miterlimit="10"/>
<path d="M1832.96 -252.751C1832.96 -252.751 1292.45 -155.137 1061.06 195.894C831.519 544.131 956.111 929.526 583.503 1152.38C210.894 1375.22 202.449 1199.18 -150.761 1434.62" stroke="#8F1943" stroke-width="0.589878" stroke-miterlimit="10"/>
<path d="M1828.62 -257.481C1828.62 -257.481 1281.74 -163.128 1057.18 196.393C833.717 554.15 965.321 945.076 585.313 1163.46C205.29 1381.81 196.894 1195.66 -152.9 1434.08" stroke="#8F1943" stroke-width="0.589878" stroke-miterlimit="10"/>
<path d="M1824.27 -262.241C1824.27 -262.241 1271.06 -171.207 1053.23 196.851C835.869 564.084 974.48 960.606 587.044 1174.47C199.624 1388.36 191.263 1192.07 -155.133 1433.51" stroke="#8F1943" stroke-width="0.589878" stroke-miterlimit="10"/>
<path d="M1819.92 -266.975C1819.92 -266.975 1260.44 -179.318 1049.28 197.334C838.124 573.986 983.663 976.112 588.831 1185.51C194 1394.91 185.657 1188.54 -157.277 1432.96" stroke="#AC4D6F" stroke-width="0.589878" stroke-miterlimit="10"/>
<g opacity="0.3">
<path d="M1920.37 -93.0114C1920.37 -93.0114 1467.22 162.571 1095.45 85.8343C723.677 9.09713 444.716 55.8862 337.757 533.903C230.751 1011.91 58.8918 1343.45 -561.987 1317.14" stroke="#D8A5B7" stroke-width="0.589878" stroke-miterlimit="10"/>
<path d="M-552.041 1318.88C53.7018 1344.57 211.359 1009.44 327.86 536.543C444.361 63.6494 725.575 30.4483 1100.83 89.1567C1476.08 147.865 1914.89 -111.986 1923.12 -113.92" stroke="#D8A5B7" stroke-width="0.589878" stroke-miterlimit="10"/>
<path d="M-542.098 1320.63C48.5381 1345.67 191.991 1006.95 317.988 539.171C443.985 71.3959 727.482 51.8364 1106.23 92.4694C1484.98 133.102 1909.38 -130.982 1925.85 -134.827" stroke="#D8A5B7" stroke-width="0.589878" stroke-miterlimit="10"/>
<path d="M-532.185 1322.4C43.3408 1346.79 172.587 1004.47 308.081 541.815C443.59 79.1855 729.373 73.2027 1111.57 95.8161C1493.8 118.412 1903.85 -149.94 1928.51 -155.703" stroke="#D8A5B7" stroke-width="0.589878" stroke-miterlimit="10"/>
<path d="M-522.234 1324.14C38.1801 1347.89 153.204 1001.95 298.225 544.465C443.232 86.9575 731.298 94.6221 1116.99 99.1522C1502.68 103.682 1898.35 -168.922 1931.26 -176.595" stroke="#D8A5B7" stroke-width="0.589878" stroke-miterlimit="10"/>
<path d="M-512.287 1325.88C33.0274 1349.01 133.794 999.467 288.346 547.093C442.898 94.7182 733.184 116 1122.4 102.494C1511.57 88.9792 1892.87 -187.919 1934.03 -197.504" stroke="#D8A5B7" stroke-width="0.589878" stroke-miterlimit="10"/>
<path d="M-502.363 1327.64C27.8017 1350.14 114.39 996.991 278.44 549.744C442.491 102.497 735.091 137.414 1127.77 105.835C1520.45 74.2547 1887.33 -206.877 1936.72 -218.399" stroke="#9D355A" stroke-width="0.589878" stroke-miterlimit="10"/>
<path d="M-492.406 1329.38C22.639 1351.22 95.0144 994.485 268.579 552.394C442.145 110.302 736.997 158.825 1133.15 109.193C1529.3 59.5369 1881.82 -225.863 1939.43 -239.279" stroke="#9D355A" stroke-width="0.589878" stroke-miterlimit="10"/>
<path d="M-482.451 1331.12C17.4725 1352.31 75.6339 991.986 258.699 555.028C441.779 118.094 738.929 180.232 1138.55 112.521C1538.17 44.8099 1876.33 -244.858 1942.14 -260.194" stroke="#9D355A" stroke-width="0.589878" stroke-miterlimit="10"/>
<path d="M-472.521 1332.87C12.2775 1353.42 56.1913 989.52 248.804 557.705C441.384 125.907 740.8 201.679 1143.93 115.893C1547.05 30.1075 1870.78 -263.818 1944.87 -281.084" stroke="#9D355A" stroke-width="0.589878" stroke-miterlimit="10"/>
<path d="M-462.552 1334.6C7.11925 1354.5 36.8167 987.012 238.929 560.336C441.042 133.659 742.724 223.068 1149.33 119.222C1555.91 15.3512 1865.28 -282.841 1947.57 -302.028" stroke="#9D355A" stroke-width="0.589878" stroke-miterlimit="10"/>
<path d="M-452.58 1336.32C1.94475 1355.62 17.4412 984.504 229.055 562.969C440.683 141.459 744.63 244.506 1154.69 122.573C1564.75 0.639464 1859.72 -301.802 1950.25 -322.926" stroke="#8F1943" stroke-width="0.589878" stroke-miterlimit="10"/>
<path d="M-442.608 1338.05C-3.21497 1356.7 -1.95241 981.975 219.192 565.636C440.322 149.271 746.564 265.94 1160.1 125.942C1573.64 -14.0557 1854.22 -320.787 1953 -343.825" stroke="#8F1943" stroke-width="0.589878" stroke-miterlimit="10"/>
<path d="M-432.664 1339.79C-8.40478 1357.79 -21.3619 979.482 209.283 568.289C439.929 157.097 748.435 287.407 1165.46 129.301C1582.49 -28.8057 1848.65 -339.741 1955.66 -364.717" stroke="#8F1943" stroke-width="0.589878" stroke-miterlimit="10"/>
<path d="M-422.68 1341.51C-13.5562 1358.86 -40.7659 976.985 199.412 570.926C439.591 164.866 750.36 308.818 1170.86 132.644C1591.36 -43.5296 1843.14 -358.753 1958.37 -385.625" stroke="#8F1943" stroke-width="0.589878" stroke-miterlimit="10"/>
<path d="M-412.697 1343.23C-18.7108 1359.93 -60.1417 974.476 189.552 573.595C439.231 172.689 752.262 330.283 1176.23 136.041C1600.2 -58.2013 1837.58 -377.669 1961.04 -406.479" stroke="#8F1943" stroke-width="0.589878" stroke-miterlimit="10"/>
<path d="M-402.738 1344.97C-23.9239 1361.04 -79.5444 971.983 179.65 576.258C438.844 180.533 754.169 351.754 1181.59 139.417C1609.05 -72.9377 1832.02 -396.648 1963.74 -427.372" stroke="#8F1943" stroke-width="0.589878" stroke-miterlimit="10"/>
<path d="M-392.728 1346.7C-29.0557 1362.12 -98.9135 969.461 169.796 578.92C438.491 188.355 756.075 373.218 1187 142.794C1617.93 -87.6295 1826.48 -415.606 1966.45 -448.243" stroke="#8F1943" stroke-width="0.589878" stroke-miterlimit="10"/>
<path d="M-382.718 1348.41C-34.1898 1363.18 -118.287 966.993 159.953 581.602C438.161 196.227 758.036 394.715 1192.41 146.198C1626.8 -102.292 1820.98 -434.522 1969.15 -469.08" stroke="#8F1943" stroke-width="0.589878" stroke-miterlimit="10"/>
<path d="M-372.498 1350.11C-39.1322 1364.25 -137.457 964.555 150.254 584.408C437.964 204.26 760.034 416.363 1197.83 149.834C1635.64 -116.696 1815.39 -453.093 1971.79 -489.556" stroke="#9D355A" stroke-width="0.589878" stroke-miterlimit="10"/>
<path d="M-362.24 1351.82C-44.0481 1365.31 -156.584 962.125 140.596 587.219C437.791 212.338 762.105 437.993 1203.33 153.456C1644.58 -131.098 1809.91 -471.661 1974.53 -510.054" stroke="#9D355A" stroke-width="0.589878" stroke-miterlimit="10"/>
<path d="M-351.969 1353.55C-48.9817 1366.4 -175.709 959.686 130.969 590.07C437.632 220.428 764.188 459.697 1208.85 157.116C1653.51 -145.464 1804.46 -490.21 1977.28 -530.49" stroke="#9D355A" stroke-width="0.589878" stroke-miterlimit="10"/>
<path d="M-341.712 1355.24C-53.8937 1367.44 -194.859 957.26 121.317 592.863C437.461 228.484 766.26 481.295 1214.34 160.719C1662.43 -159.857 1798.95 -508.767 1979.99 -550.976" stroke="#9D355A" stroke-width="0.589878" stroke-miterlimit="10"/>
<path d="M-331.492 1356.95C-58.8406 1368.5 -214.009 954.835 111.632 595.672C437.272 236.51 768.279 502.944 1219.82 164.361C1671.31 -174.23 1793.42 -527.304 1982.67 -571.441" stroke="#9D355A" stroke-width="0.589878" stroke-miterlimit="10"/>
<path d="M-321.24 1358.64C-63.7526 1369.54 -233.122 952.382 101.997 598.477C437.115 244.572 770.364 524.541 1225.29 167.99C1680.24 -188.602 1787.92 -545.864 1985.39 -591.904" stroke="#9D355A" stroke-width="0.589878" stroke-miterlimit="10"/>
<path d="M-310.992 1360.32C-68.6838 1370.61 -252.235 949.931 92.3449 601.255C436.925 252.58 772.399 546.121 1230.78 171.575C1689.11 -202.979 1782.4 -564.445 1988.07 -612.369" stroke="#9D355A" stroke-width="0.589878" stroke-miterlimit="10"/>
<path d="M-300.777 1362.02C-73.628 1371.65 -271.408 947.505 82.6791 604.065C436.734 260.642 774.464 567.734 1236.25 175.189C1698.02 -217.38 1776.89 -583.007 1990.78 -632.858" stroke="#9D355A" stroke-width="0.589878" stroke-miterlimit="10"/>
<path d="M-290.529 1363.69C-78.5363 1372.68 -290.51 945.046 73.035 606.831C436.548 268.632 776.502 589.289 1241.71 178.776C1706.93 -231.779 1771.4 -601.565 1993.5 -653.317" stroke="#9D355A" stroke-width="0.589878" stroke-miterlimit="10"/>
<path d="M-280.288 1365.36C-83.4504 1373.7 -309.615 942.583 63.3859 609.59C436.402 276.623 778.548 610.857 1247.19 182.339C1715.83 -246.178 1765.89 -620.125 1996.21 -673.802" stroke="#AC4D6F" stroke-width="0.589878" stroke-miterlimit="10"/>
<path d="M-270.082 1367.05C-88.396 1374.73 -328.765 940.108 53.7213 612.386C436.192 284.639 780.594 632.412 1252.65 185.937C1724.69 -260.563 1760.39 -638.686 1998.88 -694.27" stroke="#AC4D6F" stroke-width="0.589878" stroke-miterlimit="10"/>
<path d="M-259.839 1368.71C-93.3336 1375.76 -347.858 937.638 44.0821 615.134C436.022 292.63 782.631 653.931 1258.14 189.486C1733.6 -274.966 1754.9 -657.247 2001.6 -714.731" stroke="#AC4D6F" stroke-width="0.589878" stroke-miterlimit="10"/>
<path d="M-249.604 1370.37C-98.2303 1376.8 -366.986 935.184 34.4377 617.879C435.829 300.591 784.709 675.448 1263.62 193.031C1742.53 -289.387 1749.41 -675.85 2004.34 -735.232" stroke="#AC4D6F" stroke-width="0.589878" stroke-miterlimit="10"/>
<path d="M-239.4 1372.05C-103.169 1377.82 -386.107 932.726 24.782 620.659C435.656 308.567 786.726 696.987 1269.05 196.627C1751.36 -303.758 1743.89 -694.395 2006.98 -755.683" stroke="#AC4D6F" stroke-width="0.589878" stroke-miterlimit="10"/>
<path d="M-229.169 1373.7C-108.08 1378.83 -405.198 930.246 15.14 623.391C435.478 316.536 788.801 718.48 1274.53 200.157C1760.25 -318.166 1738.39 -712.958 2009.7 -776.145" stroke="#AC4D6F" stroke-width="0.589878" stroke-miterlimit="10"/>
<path d="M-218.937 1375.35C-113.019 1379.85 -424.314 927.784 5.47118 626.139C435.256 324.493 790.802 739.975 1279.98 203.702C1769.15 -332.571 1732.89 -731.52 2012.4 -796.629" stroke="#AC4D6F" stroke-width="0.589878" stroke-miterlimit="10"/>
<path d="M-208.708 1376.99C-117.926 1380.84 -443.411 925.274 -4.15016 628.886C435.096 332.472 792.879 761.447 1285.47 207.245C1778.01 -346.965 1727.4 -750.085 2015.07 -817.099" stroke="#9D355A" stroke-width="0.589878" stroke-miterlimit="10"/>
<path d="M-198.513 1378.65C-122.865 1381.85 -462.508 922.829 -13.7861 631.604C434.904 340.396 794.924 782.927 1290.91 210.776C1786.9 -361.376 1721.91 -768.65 2017.79 -837.56" stroke="#9D355A" stroke-width="0.589878" stroke-miterlimit="10"/>
<path d="M-188.286 1380.3C-127.769 1382.85 -481.597 920.316 -23.4172 634.319C434.763 348.322 796.989 804.356 1296.39 214.285C1795.79 -375.786 1716.4 -787.24 2020.5 -858.046" stroke="#9D355A" stroke-width="0.589878" stroke-miterlimit="10"/>
<path d="M-178.063 1381.94C-132.675 1383.84 -500.671 917.828 -33.0353 637.057C434.586 356.261 799.047 825.845 1301.88 217.816C1804.68 -390.196 1710.91 -805.803 2023.2 -878.529" stroke="#8F1943" stroke-width="0.589878" stroke-miterlimit="10"/>
<path d="M-167.877 1383.59C-137.632 1384.88 -519.809 915.367 -42.7331 639.795C434.343 364.223 801.042 847.287 1307.29 221.346C1813.55 -404.57 1705.42 -824.372 2025.88 -898.976" stroke="#8F1943" stroke-width="0.589878" stroke-miterlimit="10"/>
<path d="M-157.653 1385.22C-142.532 1385.87 -538.873 912.872 -52.3114 642.505C434.203 372.131 803.122 868.713 1312.78 224.865C1822.44 -418.983 1699.93 -842.937 2028.59 -919.461" stroke="#8F1943" stroke-width="0.589878" stroke-miterlimit="10"/>
<path d="M-147.463 1386.89C-147.463 1386.89 -557.97 910.408 -61.9984 645.249C434.005 380.072 805.147 890.18 1318.21 228.392C1831.32 -433.388 1694.44 -861.502 2031.29 -939.946" stroke="#AC4D6F" stroke-width="0.589878" stroke-miterlimit="10"/>
</g>
</g>
</g>
<defs>
<clipPath id="clip0_2621_14360">
<rect width="1440" height="858" fill="white"/>
</clipPath>
</defs>
</svg>
