<svg xmlns="http://www.w3.org/2000/svg" xmlns:xlink="http://www.w3.org/1999/xlink" viewBox="0 0 727.79 428.98"><defs><style>.cls-1{fill:url(#linear-gradient);}.cls-2{fill:#fff;}.cls-3{fill:url(#linear-gradient-2);}.cls-4{fill:url(#linear-gradient-3);}.cls-5{fill:url(#linear-gradient-4);}.cls-6{fill:url(#linear-gradient-5);}.cls-7{fill:url(#linear-gradient-6);}.cls-8{fill:url(#linear-gradient-7);}.cls-9{fill:url(#linear-gradient-8);}.cls-10{fill:url(#linear-gradient-9);}.cls-11{fill:url(#linear-gradient-10);}.cls-12{fill:url(#linear-gradient-11);}.cls-13{fill:url(#linear-gradient-12);}.cls-14{fill:url(#linear-gradient-13);}.cls-15{fill:url(#linear-gradient-14);}.cls-16{fill:url(#linear-gradient-15);}.cls-17{fill:url(#linear-gradient-16);}.cls-18{fill:url(#linear-gradient-17);}.cls-19{fill:url(#linear-gradient-18);}.cls-20{fill:url(#linear-gradient-19);}.cls-21{fill:url(#linear-gradient-20);}.cls-22{fill:url(#linear-gradient-21);}.cls-23{fill:url(#linear-gradient-22);}.cls-24{fill:url(#linear-gradient-23);}.cls-25{fill:url(#linear-gradient-24);}.cls-26{fill:url(#linear-gradient-25);}.cls-27{fill:url(#linear-gradient-26);}.cls-28{fill:url(#linear-gradient-27);}.cls-29{fill:url(#linear-gradient-28);}.cls-30{fill-rule:evenodd;fill:url(#linear-gradient-29);}.cls-31{fill:url(#linear-gradient-31);}.cls-32{fill:url(#linear-gradient-32);}.cls-33{fill:url(#linear-gradient-33);}.cls-34{fill:url(#linear-gradient-34);}.cls-35{fill:url(#linear-gradient-35);}.cls-36{fill:url(#linear-gradient-36);}.cls-37{fill:url(#linear-gradient-37);}.cls-38{fill:url(#linear-gradient-38);}.cls-39{fill:url(#linear-gradient-39);}</style><linearGradient id="linear-gradient" x1="192.18" y1="208.55" x2="303.81" y2="208.55" gradientUnits="userSpaceOnUse"><stop offset="0" stop-color="#a85d06"/><stop offset="0.02" stop-color="#b26d11"/><stop offset="0.1" stop-color="#e1bc4a"/><stop offset="0.14" stop-color="#f4db60"/><stop offset="0.26" stop-color="#fcfed1"/><stop offset="0.36" stop-color="#f4db60"/><stop offset="0.49" stop-color="#a85d06"/><stop offset="0.5" stop-color="#b26d11"/><stop offset="0.58" stop-color="#e1bc4a"/><stop offset="0.61" stop-color="#f4db60"/><stop offset="0.74" stop-color="#fcfed1"/><stop offset="0.84" stop-color="#f4db60"/><stop offset="1" stop-color="#a85d06"/></linearGradient><linearGradient id="linear-gradient-2" x1="430.76" y1="207.75" x2="531.27" y2="207.75" xlink:href="#linear-gradient"/><linearGradient id="linear-gradient-3" x1="86.86" y1="296.27" x2="109.1" y2="296.27" xlink:href="#linear-gradient"/><linearGradient id="linear-gradient-4" x1="110.66" y1="296.21" x2="159.65" y2="296.21" xlink:href="#linear-gradient"/><linearGradient id="linear-gradient-5" x1="161.12" y1="295.93" x2="208.7" y2="295.93" xlink:href="#linear-gradient"/><linearGradient id="linear-gradient-6" x1="210.26" y1="296.34" x2="251.37" y2="296.34" xlink:href="#linear-gradient"/><linearGradient id="linear-gradient-7" x1="253.32" y1="295.9" x2="298.02" y2="295.9" xlink:href="#linear-gradient"/><linearGradient id="linear-gradient-8" x1="298.59" y1="296.21" x2="347.58" y2="296.21" xlink:href="#linear-gradient"/><linearGradient id="linear-gradient-9" x1="345.94" y1="295.71" x2="392.04" y2="295.71" xlink:href="#linear-gradient"/><linearGradient id="linear-gradient-10" x1="386.17" y1="295.93" x2="433.75" y2="295.93" xlink:href="#linear-gradient"/><linearGradient id="linear-gradient-11" x1="436.28" y1="296.27" x2="458.52" y2="296.27" xlink:href="#linear-gradient"/><linearGradient id="linear-gradient-12" x1="462.16" y1="296.14" x2="508.08" y2="296.14" xlink:href="#linear-gradient"/><linearGradient id="linear-gradient-13" x1="510.67" y1="296.21" x2="559.66" y2="296.21" xlink:href="#linear-gradient"/><linearGradient id="linear-gradient-14" x1="558.02" y1="295.71" x2="604.12" y2="295.71" xlink:href="#linear-gradient"/><linearGradient id="linear-gradient-15" x1="604.5" y1="296.12" x2="644.59" y2="296.12" xlink:href="#linear-gradient"/><linearGradient id="linear-gradient-16" x1="0" y1="353.78" x2="26.63" y2="353.78" xlink:href="#linear-gradient"/><linearGradient id="linear-gradient-17" x1="28.5" y1="353.7" x2="87.14" y2="353.7" xlink:href="#linear-gradient"/><linearGradient id="linear-gradient-18" x1="87.82" y1="353.8" x2="142.79" y2="353.8" xlink:href="#linear-gradient"/><linearGradient id="linear-gradient-19" x1="143.62" y1="353.86" x2="192.84" y2="353.86" xlink:href="#linear-gradient"/><linearGradient id="linear-gradient-20" x1="196.32" y1="353.51" x2="234.87" y2="353.51" xlink:href="#linear-gradient"/><linearGradient id="linear-gradient-21" x1="237.77" y1="353.38" x2="294.73" y2="353.38" xlink:href="#linear-gradient"/><linearGradient id="linear-gradient-22" x1="296.79" y1="353.57" x2="368.29" y2="353.57" xlink:href="#linear-gradient"/><linearGradient id="linear-gradient-23" x1="370.23" y1="353.86" x2="419.44" y2="353.86" xlink:href="#linear-gradient"/><linearGradient id="linear-gradient-24" x1="421.16" y1="353.7" x2="479.81" y2="353.7" xlink:href="#linear-gradient"/><linearGradient id="linear-gradient-25" x1="481.56" y1="353.38" x2="538.52" y2="353.38" xlink:href="#linear-gradient"/><linearGradient id="linear-gradient-26" x1="560.87" y1="353.6" x2="608.85" y2="353.6" xlink:href="#linear-gradient"/><linearGradient id="linear-gradient-27" x1="606.81" y1="353.38" x2="663.77" y2="353.38" xlink:href="#linear-gradient"/><linearGradient id="linear-gradient-28" x1="664.57" y1="353.63" x2="723.44" y2="353.63" xlink:href="#linear-gradient"/><linearGradient id="linear-gradient-29" x1="387.04" y1="34.42" x2="400.94" y2="34.42" xlink:href="#linear-gradient"/><linearGradient id="linear-gradient-31" x1="318.65" y1="35.37" x2="443.79" y2="35.37" xlink:href="#linear-gradient"/><linearGradient id="linear-gradient-32" x1="0" y1="67.15" x2="723.45" y2="67.15" xlink:href="#linear-gradient"/><linearGradient id="linear-gradient-33" x1="168.02" y1="45.31" x2="170.53" y2="45.31" xlink:href="#linear-gradient"/><linearGradient id="linear-gradient-34" x1="48.23" y1="91.32" x2="230.83" y2="91.32" xlink:href="#linear-gradient"/><linearGradient id="linear-gradient-35" x1="78.37" y1="130.18" x2="279.13" y2="130.18" xlink:href="#linear-gradient"/><linearGradient id="linear-gradient-36" x1="21.05" y1="50.24" x2="203.68" y2="50.24" xlink:href="#linear-gradient"/><linearGradient id="linear-gradient-37" x1="519.72" y1="49.86" x2="701.96" y2="49.86" xlink:href="#linear-gradient"/><linearGradient id="linear-gradient-38" x1="492.55" y1="91.41" x2="674.89" y2="91.41" xlink:href="#linear-gradient"/><linearGradient id="linear-gradient-39" x1="444.05" y1="130.26" x2="644.75" y2="130.26" xlink:href="#linear-gradient"/></defs><g id="Layer_2" data-name="Layer 2"><g id="Layer_1-2" data-name="Layer 1"><path class="cls-1" d="M265.13,262.42l.3.3,31.25.81c1.76,0,7.13,0,7.13-3.37,0-1.43-.83-3.2-4.75-3.45-4.28-.25-7.49-1.72-9.82-4.48s-4.71-8.88-6.9-18c-2.39-10.16-6.06-17.07-10.9-20.56a36.69,36.69,0,0,0-11.88-5.44,51.83,51.83,0,0,0,11.08-3.12,30.77,30.77,0,0,0,12.62-9.6,23.39,23.39,0,0,0,5.11-14.73c0-8.11-3.63-14.77-10.77-19.78s-16.82-7.43-29.09-7.43c-3.75,0-8,.16-12.62.48-10.39.64-23.23,1-38.18,1-4.57,0-5.53,1.83-5.53,3.37,0,1.22.57,3.28,4.39,3.37,5.21.1,8.43,1.59,9.56,4.42,1.25,3.14,1.89,12.15,1.89,26.77l-.08,28.73.08,14.88c0,14-2.06,17.33-3.29,18.05a15,15,0,0,1-7.74,2.1c-3.55,0-3.93,2.3-3.93,3.29,0,1.26.56,3.37,4.33,3.37,1.31,0,4.28-.13,9.09-.4,5.13-.27,9.39-.4,12.64-.4l24.59.64c3.76,0,4.17-2.24,4.17-3.21,0-1.43-.79-3.2-4.6-3.45-4.16-.2-7-1.13-8.37-2.79s-2.23-4.63-2.35-8.71c-.13-4.24-.2-15.57-.2-33.68,1.65-.11,3-.16,4-.16a20.64,20.64,0,0,1,10.59,2.66c3,1.73,5.24,4.68,6.75,8.75,1.56,4.23,3.11,11.66,4.58,22.06C259.47,253.1,261.78,259.07,265.13,262.42Zm-7.59-69.1c-1.82,3.55-5,6.18-9.43,7.81a39.69,39.69,0,0,1-13.68,2.53c-.5,0-1.2,0-2.07,0v-41a30.26,30.26,0,0,1,7.83-1.19c5.93,0,10.83,1.79,14.56,5.31s5.59,8.51,5.59,14.84A25.6,25.6,0,0,1,257.54,193.32Z"/><path class="cls-2" d="M320.5,248.94c10.79,9.68,24,14.59,39.14,14.59,16.7,0,30.9-5.94,42.2-17.64s17-25.31,17-40.46a52.57,52.57,0,0,0-7.47-27.3A50.89,50.89,0,0,0,391.54,159c-8.2-4.38-17.88-6.6-28.78-6.6-16.53,0-30.58,5.65-41.74,16.79a55.08,55.08,0,0,0-16.83,40.26C304.19,225.94,309.68,239.23,320.5,248.94Zm21.13-77c5.26-7.85,12-11.82,19.93-11.82s14.75,4,20,11.78,8.07,20,8.07,35.89c0,16.81-2.85,29.13-8.47,36.62S369,255.59,361.56,255.59c-8.54,0-15.17-4-20.26-12.3s-7.73-20.26-7.73-35.46C333.57,192,336.28,180,341.63,172Z"/><path class="cls-3" d="M486.06,263.53c12.85,0,23.71-4,32.27-11.8s12.94-13.71,12.94-17.57a3.28,3.28,0,0,0-3.59-3.61c-1.39,0-2.71.93-4,2.85-8.87,12.87-18.71,19.39-29.23,19.39-9.69,0-17.92-4.45-24.46-13.22s-10-21-10-36.14c0-8.84,1.21-16.53,3.58-22.83a35.56,35.56,0,0,1,9.87-14.81,23.09,23.09,0,0,1,15.46-5.31c8.29,0,15.25,3.36,20.7,10,5.59,6.78,9.51,13,11.65,18.56.87,2.19,2.11,3.3,3.7,3.3,1.09,0,3.61-.41,3.61-4.3l-1.76-28.19c-.3-3.89-.65-4.92-.95-5.42a3.2,3.2,0,0,0-3-1.31c-1.36,0-2.78,1.14-4.45,3.56-1,1.42-2,2.73-2.95,3.91C504.72,154.87,494,152,483.62,152c-15.19,0-27.94,5.7-37.9,17a58.44,58.44,0,0,0-15,39.86c0,15.3,5,28.39,14.85,38.89S469.08,263.53,486.06,263.53Z"/><path class="cls-2" d="M44.6,275.61H80.67v40.26H4.34A40.29,40.29,0,0,1,44.6,275.61Z"/><path class="cls-2" d="M727.79,315.87H651.35V275.61h36.18A40.27,40.27,0,0,1,727.79,315.87Z"/><path class="cls-4" d="M91.61,314.14c-.55.69-1.69,1.15-3.39,1.37-1.18.15-1.36.87-1.36,1.28s.16,1.35,1.61,1.35c.36,0,.94,0,1.78-.13a63,63,0,0,1,7.09-.29c1.46,0,4.22.14,8.22.42l1.42,0c1.85,0,2.12-1,2.12-1.54s-.34-1.25-2-1.25a3.41,3.41,0,0,1-2.92-1.13c-.41-.55-1-2.13-1.21-6.59-.21-3.66-.32-8.91-.32-15.61a82.53,82.53,0,0,1,.46-11.23c.36-1.93.83-2.66,1.16-2.93a6.39,6.39,0,0,1,3.17-.86c1.3-.14,1.49-.88,1.49-1.31s-.16-1.29-1.68-1.29l-9.82.26c-1,0-2.46-.05-4.21-.14-2.32-.12-3.88-.18-4.64-.18-1.45,0-1.6.88-1.6,1.25s.21,1.31,1.6,1.42a4.78,4.78,0,0,1,2.87.84c.26.25.75,1.08,1,3.86.23,2.21.35,6.65.35,13.2,0,6.22-.06,10.87-.19,13.82C92.51,312.33,92,313.65,91.61,314.14Z"/><path class="cls-5" d="M130.92,316.6c0-.38-.15-1.26-1.51-1.26a7.44,7.44,0,0,1-3.59-1.14,4.62,4.62,0,0,1-2.29-3.58,52.71,52.71,0,0,1-.4-7.32c0-7.85,0-12.87,0-15,2.21,2.63,5.71,6.64,10.43,11.95,5.26,5.92,9.29,10.36,12,13.17,4.07,4.3,4.37,4.45,4.53,4.53a1.88,1.88,0,0,0,.86.23c.56,0,1.51-.28,1.51-2.17l.22-13.65-.16-18.11c0-2.81.54-4.69,1.6-5.61a6.29,6.29,0,0,1,3.53-1.59c1.67-.17,2-.9,2-1.48,0-.4-.16-1.35-1.63-1.35-.46,0-1,0-1.68.09-1.52.15-3.77.23-6.68.23a49.86,49.86,0,0,1-5.3-.2,14,14,0,0,0-1.62-.12c-1,0-1.51.49-1.51,1.35,0,.47.2,1.27,1.57,1.41a7.69,7.69,0,0,1,3.67,1.25,4.67,4.67,0,0,1,2,2.81,27.86,27.86,0,0,1,.5,6.31L149,300c0,.31,0,.91,0,1.79-6.69-6.91-15.05-16.08-24.87-27.25l-.12-.14h-.19c-2.38-.06-5-.09-7.76-.09-1.27,0-2.15,0-2.62-.06a8.68,8.68,0,0,0-1-.07c-1.57,0-1.74,1-1.74,1.48s.28,1.17,1.59,1.4a7.83,7.83,0,0,1,4.88,3.39,11.82,11.82,0,0,1,2.23,6.44c.12,2.45.18,9.24.18,20.2a16,16,0,0,1-.88,5.86c-.55,1.32-1.92,2.06-4.18,2.24-.6,0-2.41.19-2.41,1.35,0,.93.61,1.47,1.67,1.47a18.66,18.66,0,0,0,2-.16,57.72,57.72,0,0,1,6.86-.29,37.83,37.83,0,0,1,4.86.26c.76.08,1.4.13,1.9.13C130.76,318,130.92,317,130.92,316.6Z"/><path class="cls-6" d="M195.64,317.69l.91,0c1.37,0,1.52-.92,1.52-1.31s-.22-1.21-1.65-1.32c-2.95-.21-4.06-.58-4.47-.86a3.3,3.3,0,0,1-1.24-1.88A55.9,55.9,0,0,1,190,304c-.19-4.64-.28-9.52-.28-14.51,0-4.69.16-8.68.47-11.85a38.2,38.2,0,0,1,7.84.59,9.1,9.1,0,0,1,4.23,2.36,14.83,14.83,0,0,1,3,4.34c.57,1.19,1.2,1.77,1.91,1.77.94,0,1.47-.61,1.47-1.71l-.48-5.06c-.24-2.72-.43-4.56-.58-5.44l-.06-.35h-.35l-2.15,0c-1.12,0-2.56.05-4.29.13-4.82.24-9.3.35-13.31.35-5.3,0-13.58-.15-24.61-.44h-.36l-.07.35c-.34,1.73-.65,3.93-.92,6.55-.4,3.94-.4,4.17-.4,4.26,0,.88.55,1.38,1.51,1.38.65,0,1.2-.49,1.63-1.47a14.3,14.3,0,0,1,3.45-4.87,9.07,9.07,0,0,1,4.33-2.27,45.87,45.87,0,0,1,7.19-.42c.52,5.61.79,12.93.79,21.74,0,5.71-.11,9.46-.33,11.15a5.23,5.23,0,0,1-1.63,3.49,6.29,6.29,0,0,1-4,1.09c-1.47,0-1.63.94-1.63,1.35s.14,1,1.14,1.22c1,0,1.67.07,2,.07h0l4-.17c1.1,0,4.27-.06,9.41-.06Z"/><path class="cls-7" d="M212.19,318.14a9.92,9.92,0,0,0,1-.07c3.58-.21,6.3-.31,8.08-.31,1.59,0,3.82.06,6.63.19s5.9.2,9.16.22l11.93,0,2.16-9.51a6.06,6.06,0,0,0,.2-1.41c0-.75-.5-1.19-1.34-1.19-.61,0-1.11.43-1.56,1.32-2.47,5-7.75,7.52-15.68,7.52a9.56,9.56,0,0,1-4.56-.79,2.75,2.75,0,0,1-1.43-1.93c-.15-.89-.22-3.79-.22-8.62,0-1.09,0-3.33.15-6.65,3,.08,5.17.6,6.55,1.54a6.58,6.58,0,0,1,2.75,4.28c.11.5.46,2,1.5,2s1.45-.48,1.45-1.32a3.37,3.37,0,0,0-.08-.63,11.18,11.18,0,0,1-.24-2.41,99.44,99.44,0,0,1,.37-11.79,2.85,2.85,0,0,0,.07-.61,1.15,1.15,0,0,0-1.31-1.19c-.47,0-1.09.23-1.4,1.34a15.91,15.91,0,0,1-1.28,2.51,5.17,5.17,0,0,1-2.58,2.47,10.65,10.65,0,0,1-3.77.6l-2,0c0-1.6-.06-2.75-.06-3.46,0-4.34.19-8.39.55-12a31.43,31.43,0,0,1,5.19-.42c3.35,0,5.94.49,7.69,1.48s3.75,3.06,5.91,6.19c.51.72,1,1.07,1.49,1.07a1.24,1.24,0,0,0,1.33-1.43q-1-5-2-10l-.07-.33-26.19-.09-7.73-.23c-1.45,0-1.61,1-1.61,1.38s.19,1.16,1.39,1.31a7.37,7.37,0,0,1,3.17,1,3.3,3.3,0,0,1,.94,2.34c.14,1.27.21,4.75.21,10.33l-.2,16.49c0,3.36-.33,5.6-1,6.64s-1.92,1.49-3.83,1.49c-1.48,0-1.64.92-1.64,1.32S210.51,318.14,212.19,318.14Z"/><path class="cls-8" d="M298,316.57c0-.58-.33-1.28-1.9-1.38a5.31,5.31,0,0,1-3.94-1.8c-.95-1.13-1.88-3.56-2.76-7.2-.95-4.07-2.42-6.84-4.36-8.23a14.38,14.38,0,0,0-4.76-2.18,20.66,20.66,0,0,0,4.44-1.25,12.36,12.36,0,0,0,5.05-3.85,9.45,9.45,0,0,0-2.27-13.81c-2.81-2-6.73-3-11.64-3-1.5,0-3.21.06-5.06.19-4.16.26-9.3.39-15.29.39-1.83,0-2.21.73-2.21,1.35s.23,1.31,1.76,1.35c2.09,0,3.38.63,3.83,1.76s.75,4.87.75,10.72l0,11.51,0,6c0,5.61-.82,6.94-1.31,7.23a6.1,6.1,0,0,1-3.1.83c-1.42,0-1.58.93-1.58,1.32s.23,1.35,1.74,1.35c.52,0,1.71-.05,3.64-.16s3.76-.16,5.06-.16l9.85.26c1.5,0,1.67-.9,1.67-1.29,0-.57-.32-1.28-1.85-1.38s-2.79-.45-3.35-1.12a5.78,5.78,0,0,1-.94-3.49c-.05-1.69-.08-6.22-.08-13.48.66,0,1.2-.07,1.6-.07a8.27,8.27,0,0,1,4.24,1.07,6.43,6.43,0,0,1,2.7,3.5,48.2,48.2,0,0,1,1.84,8.84c.48,3.37,1.4,5.76,2.74,7.1l.12.12,12.51.33C295.87,317.92,298,317.92,298,316.57ZM279.49,289.8a6.59,6.59,0,0,1-3.77,3.13,16,16,0,0,1-5.48,1h-.83V277.51a12.33,12.33,0,0,1,3.14-.47,8.2,8.2,0,0,1,5.83,2.12,7.86,7.86,0,0,1,2.23,5.95A10.16,10.16,0,0,1,279.49,289.8Z"/><path class="cls-9" d="M338,318a1.91,1.91,0,0,0,.86.23c.56,0,1.51-.28,1.51-2.17l.22-13.65-.16-18.11c0-2.81.54-4.69,1.6-5.61a6.31,6.31,0,0,1,3.54-1.59c1.66-.17,2-.9,2-1.48,0-.4-.16-1.35-1.64-1.35-.46,0-1,0-1.67.09-1.52.15-3.77.23-6.69.23a50,50,0,0,1-5.3-.2,13.86,13.86,0,0,0-1.62-.12c-1,0-1.51.49-1.51,1.35,0,.47.2,1.27,1.57,1.41a7.76,7.76,0,0,1,3.68,1.25,4.66,4.66,0,0,1,2,2.81,27.27,27.27,0,0,1,.5,6.31l0,12.67c0,.31,0,.91,0,1.79-6.69-6.91-15.05-16.08-24.87-27.25l-.12-.14h-.18c-2.39-.06-5-.09-7.77-.09-1.26,0-2.15,0-2.62-.06a8.52,8.52,0,0,0-1-.07c-1.56,0-1.73,1-1.73,1.48s.27,1.17,1.59,1.4a7.83,7.83,0,0,1,4.88,3.39,12,12,0,0,1,2.23,6.44c.11,2.45.17,9.24.17,20.2a15.74,15.74,0,0,1-.88,5.86c-.54,1.31-1.95,2.06-4.18,2.24-.59,0-2.4.19-2.4,1.35,0,.93.61,1.47,1.67,1.47a18.52,18.52,0,0,0,2-.16,57.8,57.8,0,0,1,6.87-.29,37.55,37.55,0,0,1,4.85.26c.76.08,1.4.13,1.91.13,1.42,0,1.57-1,1.57-1.38s-.14-1.26-1.51-1.26a7.44,7.44,0,0,1-3.59-1.14,4.62,4.62,0,0,1-2.29-3.58,52.9,52.9,0,0,1-.39-7.32c0-7.85,0-12.87,0-15,2.2,2.63,5.7,6.64,10.42,11.95,5.27,5.92,9.29,10.36,12,13.17C337.55,317.74,337.84,317.89,338,318Z"/><path class="cls-10" d="M390.72,315.44a5.57,5.57,0,0,1-4-2.16c-.87-1.25-2.5-4.9-4.85-10.87-5.12-13.06-9.14-22.76-11.95-28.85l-.11-.25h-2.74l-.1.26c-5.23,12.7-9.22,22.9-11.86,30.33a51.83,51.83,0,0,1-3,7.2,9.33,9.33,0,0,1-2.23,2.92A9.15,9.15,0,0,1,347,315.3a1.33,1.33,0,0,0-1.07,1.33c0,.42.15,1.38,1.6,1.38a6,6,0,0,0,1-.1,34.21,34.21,0,0,1,4.75-.32c.84,0,2.21.08,4.07.23,1.47.11,2.36.16,2.72.16,1.51,0,1.73-.81,1.73-1.29s-.2-1.26-1.59-1.41a5.79,5.79,0,0,1-2.78-1,2.73,2.73,0,0,1-1.2-2.39c0-1.55.89-4.78,2.64-9.59q3.56,0,9.76,0l3,0a59.87,59.87,0,0,1,2.33,6,18,18,0,0,1,1.13,4.59c0,1.58-1.16,2.46-3.56,2.67-1.22.12-1.41.82-1.41,1.22s.25,1.35,1.9,1.35c.57,0,1.72-.06,3.52-.19,2.35-.17,4.28-.26,5.74-.26s3.37.1,5.57.29c1.91.15,3.06.23,3.52.23,1.51,0,1.67-1,1.67-1.42S391.87,315.6,390.72,315.44Zm-20.44-16.78-10.11.14,4.95-12.74c.64,1.6,1.52,3.71,2.62,6.28S369.69,297.05,370.28,298.66Z"/><path class="cls-11" d="M400.61,317.76l4.05-.17c1.1,0,4.27-.06,9.4-.06l6.64.16.91,0c1.36,0,1.51-.92,1.51-1.31s-.21-1.21-1.64-1.32c-3-.21-4.06-.58-4.47-.86a3.2,3.2,0,0,1-1.24-1.88,54.46,54.46,0,0,1-.69-8.34c-.19-4.64-.29-9.52-.29-14.51,0-4.69.16-8.68.47-11.85a38.13,38.13,0,0,1,7.84.59,9.05,9.05,0,0,1,4.23,2.36,14.83,14.83,0,0,1,3,4.34c.57,1.19,1.2,1.77,1.91,1.77.94,0,1.48-.61,1.47-1.71l-.48-5.06c-.23-2.73-.43-4.56-.58-5.44l-.06-.35h-.34l-2.16,0c-1.11,0-2.56.05-4.28.13-4.83.24-9.31.35-13.32.35-5.29,0-13.57-.15-24.61-.44h-.35l-.07.35c-.35,1.73-.66,3.94-.92,6.55-.41,3.94-.41,4.17-.41,4.26,0,.88.55,1.38,1.51,1.38.65,0,1.2-.49,1.64-1.47a14.3,14.3,0,0,1,3.45-4.87,9,9,0,0,1,4.33-2.27,45.72,45.72,0,0,1,7.18-.42c.53,5.61.8,12.92.8,21.74,0,5.7-.12,9.45-.34,11.15a5.22,5.22,0,0,1-1.62,3.49,6.31,6.31,0,0,1-4,1.09c-1.48,0-1.64.94-1.64,1.35s.14,1,1.14,1.22c1,0,1.67.07,2,.07Z"/><path class="cls-12" d="M441,314.14c-.55.69-1.7,1.15-3.39,1.37-1.19.15-1.36.87-1.36,1.28s.15,1.35,1.6,1.35c.36,0,.94,0,1.79-.13a63,63,0,0,1,7.09-.29c1.45,0,4.21.14,8.22.42l1.42,0c1.84,0,2.12-1,2.12-1.54s-.35-1.25-2-1.25a3.41,3.41,0,0,1-2.92-1.13c-.41-.55-.95-2.13-1.21-6.59-.21-3.66-.32-8.91-.32-15.61a80.82,80.82,0,0,1,.46-11.23c.36-1.93.83-2.66,1.16-2.93a6.38,6.38,0,0,1,3.16-.86c1.31-.14,1.5-.88,1.5-1.31s-.16-1.29-1.68-1.29l-9.83.26c-1,0-2.46-.05-4.2-.14-2.32-.12-3.88-.18-4.64-.18-1.45,0-1.6.88-1.6,1.25s.2,1.31,1.6,1.42a5.06,5.06,0,0,1,2.87.84c.32.31.76,1.22,1,3.86.23,2.21.35,6.65.35,13.2,0,6.22-.07,10.87-.19,13.82C441.92,312.33,441.42,313.65,441,314.14Z"/><path class="cls-13" d="M468.69,312.55a23.75,23.75,0,0,0,39.39-17.42,21.11,21.11,0,0,0-3-10.93,20.39,20.39,0,0,0-7.95-7.67,24.24,24.24,0,0,0-11.52-2.64,22.83,22.83,0,0,0-16.72,6.72,22.08,22.08,0,0,0-6.74,16.13C462.16,303.34,464.36,308.67,468.69,312.55Zm8.47-30.81c2.1-3.14,4.79-4.73,8-4.73s5.87,1.54,8,4.71,3.23,8,3.23,14.37c0,6.74-1.14,11.67-3.39,14.67s-4.87,4.46-7.85,4.46c-3.42,0-6.08-1.61-8.12-4.93s-3.09-8.11-3.09-14.2C473.93,289.76,475,284.93,477.16,281.74Z"/><path class="cls-14" d="M559.66,275.59c0-.4-.16-1.35-1.64-1.35-.46,0-1,0-1.68.09-1.52.15-3.76.23-6.68.23a50,50,0,0,1-5.3-.2,13.86,13.86,0,0,0-1.62-.12c-1,0-1.51.49-1.51,1.35,0,.47.2,1.27,1.57,1.41a7.76,7.76,0,0,1,3.68,1.25,4.66,4.66,0,0,1,2,2.81,27.86,27.86,0,0,1,.5,6.31L549,300c0,.31,0,.91,0,1.79-6.69-6.91-15-16.08-24.87-27.25l-.12-.14h-.18c-2.39-.06-5-.09-7.77-.09-1.26,0-2.15,0-2.62-.06a8.68,8.68,0,0,0-1-.07c-1.56,0-1.73,1-1.73,1.48s.27,1.17,1.59,1.4a7.83,7.83,0,0,1,4.88,3.39,12,12,0,0,1,2.23,6.44c.11,2.45.17,9.24.17,20.2a16,16,0,0,1-.88,5.86c-.54,1.31-1.95,2.06-4.18,2.24-.59,0-2.4.19-2.4,1.35,0,.93.6,1.47,1.67,1.47a18.52,18.52,0,0,0,2-.16,57.8,57.8,0,0,1,6.87-.29,37.55,37.55,0,0,1,4.85.26c.76.08,1.4.13,1.91.13,1.42,0,1.57-1,1.57-1.38s-.15-1.26-1.51-1.26a7.44,7.44,0,0,1-3.59-1.14,4.62,4.62,0,0,1-2.29-3.58,52.9,52.9,0,0,1-.39-7.32c0-7.85,0-12.87,0-15,2.21,2.63,5.71,6.64,10.43,11.95,5.27,5.92,9.29,10.36,12,13.17,4.07,4.3,4.36,4.45,4.52,4.53a1.91,1.91,0,0,0,.86.23c.56,0,1.51-.28,1.51-2.17l.22-13.65-.16-18.11c0-2.81.54-4.69,1.6-5.61a6.29,6.29,0,0,1,3.53-1.59C559.31,276.9,559.66,276.17,559.66,275.59Z"/><path class="cls-15" d="M602.8,315.44a5.57,5.57,0,0,1-4-2.16c-.87-1.25-2.5-4.9-4.85-10.87-5.12-13.06-9.14-22.76-12-28.85l-.11-.25h-2.74l-.1.26c-5.23,12.7-9.23,22.9-11.86,30.33a51.83,51.83,0,0,1-3,7.2A9.33,9.33,0,0,1,562,314a9.15,9.15,0,0,1-2.88,1.28,1.33,1.33,0,0,0-1.07,1.33c0,.42.15,1.38,1.6,1.38a6,6,0,0,0,1-.1,34.21,34.21,0,0,1,4.75-.32c.84,0,2.21.08,4.07.23,1.47.11,2.36.16,2.72.16,1.51,0,1.73-.81,1.73-1.29s-.2-1.26-1.59-1.41a5.79,5.79,0,0,1-2.78-1,2.73,2.73,0,0,1-1.2-2.39c0-1.55.89-4.78,2.64-9.59q3.56,0,9.75,0l3,0a59.87,59.87,0,0,1,2.33,6,18,18,0,0,1,1.13,4.59c0,1.58-1.17,2.46-3.56,2.67-1.22.12-1.41.82-1.41,1.22s.25,1.35,1.9,1.35c.57,0,1.72-.06,3.52-.19,2.35-.17,4.28-.26,5.74-.26s3.37.1,5.57.29c1.91.15,3.06.23,3.52.23,1.51,0,1.67-1,1.67-1.42S604,315.6,602.8,315.44Zm-20.44-16.78-10.11.14,5-12.74c.64,1.6,1.52,3.71,2.62,6.28S581.77,297.05,582.36,298.66Z"/><path class="cls-16" d="M643.3,302.79c-.55,0-1,.41-1.48,1.25a27.25,27.25,0,0,1-4.9,7.09,12.76,12.76,0,0,1-4.73,2.87,27.38,27.38,0,0,1-7.69.8,3.56,3.56,0,0,1-2.61-.71c-.25-.28-.67-1.3-.69-5.06V289.55a77.88,77.88,0,0,1,.3-8.86,4.24,4.24,0,0,1,1-2.54,5.25,5.25,0,0,1,2.81-1,8.93,8.93,0,0,0,2.28-.5,1.16,1.16,0,0,0,.67-1.1c0-.5-.23-1.35-1.77-1.35-.38,0-1.11,0-2.2.07-2.92.17-5.23.25-6.85.25l-10.65-.32c-1.73,0-2,.87-2,1.38s.23,1.37,1.78,1.45a5,5,0,0,1,2.79.83,4.69,4.69,0,0,1,1.51,2.39,20.12,20.12,0,0,1,.55,5.6c0,6.55,0,12.29-.06,17.05a55.69,55.69,0,0,1-.48,8.82,4.36,4.36,0,0,1-1.36,2.41,5.6,5.6,0,0,1-2.83,1.08,5.33,5.33,0,0,0-1.71.42,1,1,0,0,0-.54,1c0,.42.16,1.38,1.64,1.38q.42,0,1.35-.06c2.43-.24,5.64-.36,9.54-.36,11.22,0,19.6.14,24.9.42l.37,0,.07-.36c1.49-7.68,2.22-12.11,2.22-13.53A1.21,1.21,0,0,0,643.3,302.79Z"/><path class="cls-17" d="M24.25,376.65a4.08,4.08,0,0,1-3.5-1.35c-.49-.65-1.14-2.55-1.45-7.89-.25-4.38-.38-10.66-.38-18.69,0-7,.18-11.48.55-13.43.43-2.32,1-3.2,1.39-3.52s1.4-.78,3.79-1c1.55-.18,1.79-1.06,1.79-1.57s-.2-1.54-2-1.54L12.66,328c-1.25,0-2.94-.06-5-.17-2.78-.15-4.64-.22-5.55-.22-1.74,0-1.92,1.05-1.92,1.5s.25,1.56,1.92,1.69c2.13.18,3,.65,3.43,1s.9,1.29,1.25,4.61c.27,2.64.42,8,.42,15.81,0,7.45-.08,13-.23,16.54-.19,4.27-.79,5.86-1.25,6.44-.67.82-2,1.37-4.07,1.64C.22,377,0,377.85,0,378.34S.19,380,1.93,380c.43,0,1.12,0,2.13-.16a75.21,75.21,0,0,1,8.49-.34c1.74,0,5.05.17,9.84.5l1.7,0c2.21,0,2.54-1.15,2.54-1.84S26.21,376.65,24.25,376.65Z"/><path class="cls-18" d="M85.18,327.41c-.55,0-1.2,0-2,.11-1.82.18-4.51.27-8,.27a61.91,61.91,0,0,1-6.34-.24,17.74,17.74,0,0,0-1.94-.14c-1.15,0-1.81.59-1.81,1.61,0,.56.25,1.52,1.88,1.69a9.27,9.27,0,0,1,4.4,1.49,5.65,5.65,0,0,1,2.41,3.37,33.82,33.82,0,0,1,.59,7.55l0,15.17c0,.38,0,1.09,0,2.15-8-8.28-18-19.25-29.77-32.63l-.14-.17h-.22c-2.86-.08-6-.12-9.3-.12-1.51,0-2.57,0-3.13-.07s-.9-.08-1.17-.08c-1.87,0-2.07,1.24-2.07,1.77s.33,1.4,1.9,1.68a9.33,9.33,0,0,1,5.84,4.06,14.19,14.19,0,0,1,2.67,7.71c.14,2.92.21,11.06.21,24.17a19,19,0,0,1-1,7c-.66,1.59-2.3,2.46-5,2.68-.71.06-2.87.23-2.87,1.61,0,1.13.72,1.77,2,1.77a22.63,22.63,0,0,0,2.37-.19,68.86,68.86,0,0,1,8.22-.34,46.16,46.16,0,0,1,5.81.3,21.69,21.69,0,0,0,2.28.15c1.7,0,1.88-1.15,1.88-1.65s-.17-1.5-1.8-1.5a8.91,8.91,0,0,1-4.3-1.37A5.53,5.53,0,0,1,43.9,371a61.93,61.93,0,0,1-.47-8.76c0-9.41,0-15.41,0-17.94,2.64,3.15,6.83,7.95,12.48,14.3,6.3,7.09,11.12,12.4,14.31,15.77,4.88,5.15,5.23,5.33,5.42,5.42a2.32,2.32,0,0,0,1,.28c.67,0,1.8-.34,1.8-2.6l.27-16.34-.19-21.68c0-3.36.65-5.61,1.92-6.71a7.51,7.51,0,0,1,4.22-1.91c2-.19,2.41-1.07,2.41-1.77C87.14,328.54,87,327.41,85.18,327.41Z"/><path class="cls-19" d="M140.94,327.18a22.86,22.86,0,0,0-2.67.19,52.12,52.12,0,0,1-10.6,0c-1.08-.08-2-.11-2.72-.11-1.22,0-1.92.63-1.92,1.73,0,.65.39,1.45,2.26,1.53a3.5,3.5,0,0,1,2.47,1.16,3.69,3.69,0,0,1,1.1,2.71,11.08,11.08,0,0,1-.62,3.52l-3.75,10.54c-1.89,5.33-3.89,10.67-6,15.9-6.37-16.39-9.6-26.61-9.6-30.38,0-2,1.28-3.13,3.92-3.45,1.73-.2,2.1-.94,2.1-1.53s-.31-1.77-2.35-1.77c-.2,0-.8,0-1.8.07-3.5.26-7.08.39-10.64.39l-10.37-.39c-1.77,0-2,1.13-2,1.62s.17,1.49,1.7,1.54a6.84,6.84,0,0,1,2.66.61,6.7,6.7,0,0,1,1.93,2c.74,1.05,2.48,4.95,5.16,11.59s5,12.43,6.71,17l7.19,18.73h3.7l.14-.29c1.12-2.38,3.34-7.92,6.59-16.49l6.81-17.6A97.89,97.89,0,0,1,135,335.22a11,11,0,0,1,2.73-3.36,7.14,7.14,0,0,1,3.26-1.3c1.54-.22,1.77-1.15,1.77-1.69A1.62,1.62,0,0,0,140.94,327.18Z"/><path class="cls-20" d="M191.23,365.53c-.72,0-1.34.53-1.87,1.58-3,6-9.28,9-18.77,9-2.58,0-4.41-.31-5.46-.94a3.29,3.29,0,0,1-1.72-2.32c-.17-1.06-.26-4.53-.26-10.31,0-1.28.06-4,.18-8,3.55.09,6.19.71,7.85,1.84a8,8,0,0,1,3.29,5.12c.13.6.55,2.43,1.79,2.43a1.51,1.51,0,0,0,1.73-1.58,3.79,3.79,0,0,0-.09-.76,13.46,13.46,0,0,1-.29-2.89c0-7.83.15-12.58.45-14.11a3.37,3.37,0,0,0,.09-.73,1.38,1.38,0,0,0-1.58-1.42c-.56,0-1.3.28-1.67,1.6a19.06,19.06,0,0,1-1.53,3,6.33,6.33,0,0,1-3.09,3,13,13,0,0,1-4.52.71l-2.43,0c0-1.91-.06-3.29-.06-4.13,0-5.2.22-10.05.65-14.42a37.18,37.18,0,0,1,6.21-.51c4,0,7.11.6,9.21,1.78s4.49,3.67,7.07,7.41c.62.87,1.2,1.28,1.79,1.28a1.48,1.48,0,0,0,1.6-1.71q-1.2-6-2.42-12l-.08-.4L156,328l-9.25-.28c-1.74,0-1.93,1.15-1.93,1.65s.22,1.39,1.66,1.57a8.87,8.87,0,0,1,3.79,1.15,4,4,0,0,1,1.13,2.8c.17,1.52.25,5.68.25,12.37L151.37,367c0,4-.41,6.7-1.21,8s-2.29,1.78-4.58,1.78c-1.77,0-2,1.1-2,1.58,0,.63.3,1.69,2.31,1.69.26,0,.68,0,1.22-.08,4.29-.25,7.54-.38,9.67-.38,1.9,0,4.57.07,7.94.23s7.06.24,11,.26L190,380l2.58-11.39a7.65,7.65,0,0,0,.25-1.69C192.84,366.06,192.23,365.53,191.23,365.53Z"/><path class="cls-21" d="M217,345.65c-4.27-1.21-7.18-2.49-8.65-3.81a5.65,5.65,0,0,1-2.14-4.28,6.23,6.23,0,0,1,2.3-5,8.68,8.68,0,0,1,5.87-2,12.56,12.56,0,0,1,7.33,2.64,16.17,16.17,0,0,1,5.29,6,11.1,11.1,0,0,0,1.39,2.5,2,2,0,0,0,1.48.52,1.42,1.42,0,0,0,1.53-1.6l-1.49-11.78c-.24-1.75-1.09-2.12-1.77-2.12s-1.28.5-1.75,1.49a6.29,6.29,0,0,1-.7,1.15c-4.69-1.65-8.52-2.49-11.39-2.49-5.45,0-9.83,1.47-13,4.35a13.83,13.83,0,0,0-4.83,10.61,14.18,14.18,0,0,0,2,7.06,14.83,14.83,0,0,0,5.23,5.46,49.42,49.42,0,0,0,9.76,4.07c4.35,1.4,7.4,2.88,9.05,4.38a6.92,6.92,0,0,1,2.41,5.38,7.74,7.74,0,0,1-2.63,5.74,9.67,9.67,0,0,1-6.95,2.54,12.57,12.57,0,0,1-9-3.7,26.62,26.62,0,0,1-6.24-9.41c-.39-1-1-2.23-2.08-2.23a1.48,1.48,0,0,0-1.65,1.61c0,.16,0,.56.07,1.2l1.12,13.92c.15,1.68.71,2.53,1.65,2.53s1.51-.64,2-1.9a7.9,7.9,0,0,1,1-1.84,38.39,38.39,0,0,0,7,2.67,26.68,26.68,0,0,0,6.88,1,19.54,19.54,0,0,0,9.68-2.15,20.65,20.65,0,0,0,6.48-5.87,15.5,15.5,0,0,0,2.75-9.31,15.06,15.06,0,0,0-3.73-9.87C228.66,350.09,223.89,347.61,217,345.65Z"/><path class="cls-22" d="M293.46,327.71l-.07-.41H293l-2.58,0c-1.33,0-3.06.05-5.13.15-5.77.28-11.13.42-15.94.42-6.33,0-16.25-.18-29.46-.54h-.42l-.09.42c-.41,2.07-.78,4.72-1.1,7.85-.48,4.72-.48,5-.48,5.09a1.58,1.58,0,0,0,1.81,1.66c.77,0,1.43-.59,1.95-1.76a17.09,17.09,0,0,1,4.14-5.83,10.8,10.8,0,0,1,5.18-2.72,55.88,55.88,0,0,1,8.6-.51c.63,6.73.95,15.48.95,26,0,6.82-.14,11.31-.4,13.34a6.27,6.27,0,0,1-1.95,4.18,7.54,7.54,0,0,1-4.82,1.3c-1.77,0-2,1.13-2,1.62s.17,1.21,1.37,1.46c1.2.05,2,.08,2.41.08h0l4.84-.19c1.31-.06,5.11-.08,11.25-.08l8,.19,1.09,0c1.63,0,1.81-1.1,1.81-1.58s-.26-1.44-2-1.57c-3.53-.25-4.86-.7-5.35-1A3.9,3.9,0,0,1,273.2,373c-.32-1.1-.6-4.46-.83-10s-.34-11.4-.34-17.37c0-5.62.19-10.38.56-14.19a45.75,45.75,0,0,1,9.39.72A10.81,10.81,0,0,1,287,335a17.73,17.73,0,0,1,3.64,5.19c.68,1.43,1.43,2.13,2.29,2.13,1.12,0,1.76-.73,1.76-2l-.58-6.06C293.87,331,293.64,328.77,293.46,327.71Z"/><path class="cls-23" d="M361.28,333.36c.82-1.81,2.55-2.68,5.28-2.68a1.52,1.52,0,0,0,1.73-1.58c0-.52-.21-1.73-2.08-1.73-.24,0-.6,0-1.1,0-5.16.3-10.87.46-17,.46h-.35l-.12.33c-3.2,8.49-7.95,19.81-14.1,33.63-.5-.93-1.34-2.43-2.53-4.52-2.2-3.9-4.19-7.65-5.92-11.16s-3.53-7-5.33-10.48-3-5.93-3.67-7.49l-.13-.31h-.33c-8.11,0-13.52-.12-16.1-.34-.38,0-.67,0-.88,0-1.7,0-1.89,1.1-1.89,1.57s.22,1.45,1.68,1.76a10.17,10.17,0,0,1,4.63,1.84,5.52,5.52,0,0,1,1.71,3.43,79.32,79.32,0,0,1,.38,9.82L305,367.83c0,2.86-.36,4.93-1.06,6.15s-2.18,2-4.49,2.41a6.3,6.3,0,0,0-1.91.59,1.3,1.3,0,0,0-.56,1.17c0,.49.18,1.61,1.85,1.61a5.85,5.85,0,0,0,.87-.08,66.31,66.31,0,0,1,8.18-.37c1.32,0,3.53.11,6.55.33.35,0,.67.05,1,.05,1.52,0,1.69-1.05,1.69-1.5s-.25-1.4-1.92-1.58c-2.73-.23-4.39-1-4.95-2.32s-.92-5-.92-10.57c0-9.66.06-17.62.16-23.69,10.86,20.9,17.28,33.42,19.08,37.22.76,1.61,1.41,2.32,2.11,2.32.89,0,1.44-1.12,1.77-2l3.87-10.4c1.57-4.22,5.57-13.85,11.91-28.62,0,2.54,0,6.78,0,12.66L348,368.4a22,22,0,0,1-.44,5.06,3.76,3.76,0,0,1-1.17,2.13,6.6,6.6,0,0,1-2.69.91c-.6.09-2.41.38-2.41,1.69a1.84,1.84,0,0,0,.94,1.49l.14.09h.17c5.68-.25,10.22-.38,13.49-.38l10.89.08.12-.07A1.58,1.58,0,0,0,368,378c0-.59-.28-1.58-2.14-1.62a5.19,5.19,0,0,1-4.52-2.19c-.95-1.44-1.43-4.06-1.43-7.77l0-18.8C360,340.06,360.41,335.26,361.28,333.36Z"/><path class="cls-24" d="M417.83,365.53c-.72,0-1.33.52-1.86,1.58-3,6-9.28,9-18.77,9-2.58,0-4.42-.31-5.46-.94a3.29,3.29,0,0,1-1.72-2.32c-.17-1.06-.26-4.53-.26-10.31,0-1.29.06-4,.18-8,3.55.09,6.19.71,7.84,1.84a8,8,0,0,1,3.3,5.12c.13.6.55,2.43,1.79,2.43a1.51,1.51,0,0,0,1.73-1.58,4,4,0,0,0-.09-.76,12.86,12.86,0,0,1-.29-2.89c0-7.82.15-12.58.45-14.11a3.37,3.37,0,0,0,.09-.73,1.38,1.38,0,0,0-1.58-1.42c-.56,0-1.3.28-1.67,1.59a20.62,20.62,0,0,1-1.53,3,6.31,6.31,0,0,1-3.1,3,12.9,12.9,0,0,1-4.51.71l-2.43,0c0-1.91-.06-3.29-.06-4.13,0-5.2.21-10.05.65-14.42a37.18,37.18,0,0,1,6.21-.51c4,0,7.11.6,9.21,1.78s4.49,3.67,7.07,7.41c.62.87,1.2,1.28,1.78,1.28a1.48,1.48,0,0,0,1.6-1.71q-1.18-6-2.41-12l-.08-.4-31.35-.1-9.26-.28c-1.73,0-1.92,1.15-1.92,1.65s.22,1.39,1.66,1.57a8.92,8.92,0,0,1,3.79,1.15,4,4,0,0,1,1.13,2.8c.17,1.52.25,5.69.25,12.37L378,367c0,4-.41,6.7-1.21,8s-2.29,1.78-4.58,1.78c-1.77,0-2,1.1-2,1.58,0,.63.3,1.69,2.31,1.69.26,0,.68,0,1.22-.08,4.29-.25,7.54-.38,9.67-.38,1.9,0,4.57.07,7.93.23s7.07.24,11,.26l14.29,0,2.58-11.39a7.56,7.56,0,0,0,.24-1.69C419.44,366.06,418.84,365.53,417.83,365.53Z"/><path class="cls-25" d="M477.85,327.41c-.55,0-1.21,0-2,.11-1.82.18-4.51.27-8,.27a62,62,0,0,1-6.35-.24,17.74,17.74,0,0,0-1.94-.14c-1.15,0-1.8.59-1.8,1.61,0,.56.24,1.52,1.87,1.69A9.3,9.3,0,0,1,464,332.2a5.65,5.65,0,0,1,2.4,3.37,33.07,33.07,0,0,1,.6,7.55l0,15.17c0,.38,0,1.09,0,2.15-8-8.28-18-19.25-29.78-32.63l-.14-.17h-.22c-2.86-.08-6-.12-9.3-.12-1.51,0-2.57,0-3.13-.07s-.9-.08-1.16-.08c-1.88,0-2.08,1.24-2.08,1.77s.33,1.4,1.9,1.68a9.33,9.33,0,0,1,5.84,4.06,14.11,14.11,0,0,1,2.67,7.71c.14,2.93.21,11.06.21,24.17a19,19,0,0,1-1,7c-.65,1.56-2.33,2.47-5,2.68-.71.06-2.88.23-2.88,1.61,0,1.13.73,1.77,2,1.77a22.69,22.69,0,0,0,2.36-.19,69,69,0,0,1,8.22-.34,45.94,45.94,0,0,1,5.81.3,21.69,21.69,0,0,0,2.28.15c1.7,0,1.89-1.15,1.89-1.65s-.18-1.5-1.81-1.5a8.91,8.91,0,0,1-4.3-1.37,5.56,5.56,0,0,1-2.74-4.28,63.49,63.49,0,0,1-.47-8.76c0-9.41,0-15.41,0-17.94,2.65,3.15,6.84,7.95,12.48,14.3,6.31,7.1,11.12,12.4,14.32,15.77,4.87,5.15,5.22,5.33,5.41,5.42a2.32,2.32,0,0,0,1,.28c.68,0,1.81-.34,1.81-2.6l.27-16.34-.2-21.68c0-3.36.65-5.61,1.92-6.71a7.53,7.53,0,0,1,4.23-1.91c2-.19,2.41-1.07,2.41-1.77C479.81,328.54,479.62,327.41,477.85,327.41Z"/><path class="cls-26" d="M537.25,327.71l-.07-.41h-.42l-2.58,0c-1.33,0-3.06.05-5.13.15-5.77.28-11.14.42-15.94.42-6.34,0-16.25-.18-29.46-.54h-.42l-.09.42c-.41,2.08-.78,4.72-1.1,7.85-.48,4.71-.48,5-.48,5.09a1.58,1.58,0,0,0,1.81,1.66c.77,0,1.43-.59,1.95-1.76a17.21,17.21,0,0,1,4.13-5.83,10.82,10.82,0,0,1,5.19-2.72,55.88,55.88,0,0,1,8.6-.51c.63,6.72.95,15.48.95,26,0,6.82-.14,11.31-.4,13.34a6.27,6.27,0,0,1-2,4.18,7.54,7.54,0,0,1-4.82,1.3c-1.77,0-2,1.13-2,1.62s.17,1.21,1.36,1.46c1.21.05,2,.08,2.42.08h0l4.83-.19c1.32-.06,5.12-.08,11.26-.08l7.95.19,1.09,0c1.63,0,1.81-1.1,1.81-1.58s-.26-1.44-2-1.57c-3.53-.25-4.86-.7-5.35-1A3.9,3.9,0,0,1,517,373c-.32-1.1-.6-4.46-.83-10s-.34-11.4-.34-17.37c0-5.62.19-10.38.56-14.19a45.75,45.75,0,0,1,9.39.72,10.81,10.81,0,0,1,5.06,2.82,17.92,17.92,0,0,1,3.64,5.19c.68,1.43,1.43,2.13,2.29,2.13,1.12,0,1.76-.73,1.76-2l-.58-6.06C537.66,331,537.43,328.77,537.25,327.71Z"/><path class="cls-27" d="M607.32,361.58c-.67,0-1.25.49-1.78,1.49a32.77,32.77,0,0,1-5.86,8.5A15.34,15.34,0,0,1,594,375a32.94,32.94,0,0,1-9.21.95c-1.55,0-2.6-.29-3.11-.85-.3-.33-.8-1.55-.83-6.06V345.73a92.82,92.82,0,0,1,.36-10.6,5.11,5.11,0,0,1,1.26-3.05,6.45,6.45,0,0,1,3.36-1.18,10.36,10.36,0,0,0,2.73-.6,1.38,1.38,0,0,0,.8-1.31c0-.61-.27-1.62-2.11-1.62-.47,0-1.34,0-2.64.09-3.5.19-6.26.29-8.2.29l-12.75-.38c-2.07,0-2.38,1-2.38,1.65s.28,1.65,2.13,1.73a6,6,0,0,1,3.34,1,5.64,5.64,0,0,1,1.8,2.86,24.13,24.13,0,0,1,.67,6.7c0,7.85,0,14.72-.08,20.42s-.24,9.21-.58,10.56a5.34,5.34,0,0,1-1.61,2.88,6.75,6.75,0,0,1-3.4,1.29,6.67,6.67,0,0,0-2,.5,1.26,1.26,0,0,0-.64,1.19c0,.5.19,1.65,2,1.65.34,0,.87,0,1.62-.08,2.91-.27,6.75-.41,11.42-.41,13.43,0,23.45.16,29.81.49l.43,0,.09-.42c1.78-9.2,2.65-14.5,2.65-16.21A1.44,1.44,0,0,0,607.32,361.58Z"/><path class="cls-28" d="M662.5,327.71l-.07-.41H662l-2.58,0c-1.33,0-3.06.05-5.13.15-5.77.28-11.14.42-15.94.42-6.34,0-16.25-.18-29.46-.54h-.42l-.09.42c-.41,2.08-.78,4.72-1.1,7.85-.48,4.71-.48,5-.48,5.09a1.58,1.58,0,0,0,1.81,1.66c.77,0,1.43-.59,2-1.76a17.21,17.21,0,0,1,4.13-5.83,10.82,10.82,0,0,1,5.19-2.72,55.88,55.88,0,0,1,8.6-.51c.63,6.72,1,15.48,1,26,0,6.82-.14,11.31-.4,13.34a6.27,6.27,0,0,1-1.95,4.18,7.54,7.54,0,0,1-4.82,1.3c-1.77,0-2,1.13-2,1.62s.17,1.21,1.36,1.46c1.21.05,2,.08,2.42.08h0l4.83-.19c1.32-.06,5.12-.08,11.26-.08l7.95.19,1.09,0c1.63,0,1.81-1.1,1.81-1.58s-.26-1.44-2-1.57c-3.53-.25-4.86-.7-5.35-1a3.9,3.9,0,0,1-1.48-2.26c-.32-1.1-.6-4.46-.83-10s-.34-11.4-.34-17.37c0-5.62.19-10.38.56-14.19a45.75,45.75,0,0,1,9.39.72,10.86,10.86,0,0,1,5.06,2.82,17.92,17.92,0,0,1,3.64,5.19c.68,1.43,1.43,2.13,2.29,2.13,1.12,0,1.76-.73,1.76-2l-.58-6.06C662.91,331,662.68,328.77,662.5,327.71Z"/><path class="cls-29" d="M708.44,330.46a37.21,37.21,0,0,0-14.24-2.82l-14.52.31c-1.21,0-3.38-.15-6.47-.42-2.85-.29-4.49-.43-5-.43-1.56,0-1.73,1.08-1.73,1.54s.24,1.52,1.86,1.65c2.4.12,3.84.84,4.41,2.21s.94,5.62.94,12.3c0,4.77-.11,10.09-.32,15.79s-.46,9.53-.71,11.43a5.18,5.18,0,0,1-1.64,3.62,7.46,7.46,0,0,1-4.3,1c-1.87,0-2.15,1-2.15,1.62a1.39,1.39,0,0,0,.72,1.39,6.09,6.09,0,0,0,2.42.26l4.95.08,8.43,0c8.07.15,12.73.23,13.85.23A42.56,42.56,0,0,0,705.27,379a24.11,24.11,0,0,0,8.93-4.68,23.59,23.59,0,0,0,6.88-8.8,28.14,28.14,0,0,0-1.68-25.81A23.17,23.17,0,0,0,708.44,330.46Zm-23.08,23,.46-13c.26-6.87.38-8.25.42-8.43a1.34,1.34,0,0,1,.57-.5c.16-.09.82-.29,3.57-.29,6,0,10.67,2.24,13.92,6.68s4.94,10.28,4.94,17.22-1.53,12.15-4.56,15.8-7.16,5.46-12.34,5.46a8.83,8.83,0,0,1-4.82-1,4.46,4.46,0,0,1-1.83-2.81,39.38,39.38,0,0,1-.44-7.24C685.25,360.59,685.28,356.59,685.36,353.41Z"/><path class="cls-2" d="M30.26,392.83q-3.5-2.65-12.33-2.65l-11.63.17c-1.4,0-2.64,0-3.7-.08l-.74,0c-1.18,0-1.77.31-1.77.94s.33.8,1,.8a3.78,3.78,0,0,1,3.1,1.09A4.52,4.52,0,0,1,5.08,396l0,9q0,4.85,0,11.21A58.47,58.47,0,0,1,4.75,424a3.7,3.7,0,0,1-1,2.05,4.27,4.27,0,0,1-2.22.81c-1,.15-1.57.44-1.57.85s.31.8.91.8,1.83-.06,3.37-.17c1.86-.13,3.32-.2,4.39-.2s2.67.07,5.1.2c1.81.11,3,.17,3.45.17,1.1,0,1.65-.25,1.65-.74a.73.73,0,0,0-.34-.7,4.76,4.76,0,0,0-1.65-.21,4.11,4.11,0,0,1-2.94-1.07c-.64-.68-1-2.15-1-4.43l0-10.84c1.86.08,3.45.12,4.76.12q8.49,0,12.25-2.86a9.1,9.1,0,0,0,3.74-7.59A8.71,8.71,0,0,0,30.26,392.83Zm-8,13.09q-2.25,2.73-6.78,2.73c-.59,0-1.43,0-2.51-.14V392.72a27.14,27.14,0,0,1,4.39-.49,7.47,7.47,0,0,1,5.09,1.8,6.71,6.71,0,0,1,2.07,5.37A9.87,9.87,0,0,1,22.29,405.92Z"/><path class="cls-2" d="M65,426.5c-1.12-.1-1.74-.42-1.85-1s-.18-3.77-.18-9.7q0-11.07-.11-12.18c-2.28.14-4.74.2-7.38.2a10.75,10.75,0,0,0-2.18.13.57.57,0,0,0-.42.61c0,.54.57.83,1.71.89s1.66.32,1.84.85a12.76,12.76,0,0,1,.27,3.31l-.05,6.3a17.11,17.11,0,0,1-.73,5.87,6.64,6.64,0,0,1-2.25,2.91,5.12,5.12,0,0,1-3,1.11,3,3,0,0,1-2.24-1.08,5.21,5.21,0,0,1-1.12-3.24q-.15-2.14-.15-9.85c0-3.38,0-6.05-.14-8-.57.12-3.4.17-8.49.17-.75,0-1.12.26-1.12.77s.42.63,1.26.75,1.5.46,1.72,1a22.4,22.4,0,0,1,.33,5.34v8.81q0,8.16,7.27,8.16a9.38,9.38,0,0,0,4.58-1.2,14.62,14.62,0,0,0,4.14-3.59,23.22,23.22,0,0,0-.2,3,2.74,2.74,0,0,0,.13,1.1c.09.12.31.18.67.18l.77,0c.27,0,1.66,0,4.19,0,.72,0,1.35,0,1.88.05l.72,0c.76,0,1.14-.27,1.14-.83S65.63,426.57,65,426.5Z"/><path class="cls-2" d="M86.32,403.12a6.6,6.6,0,0,0-4.13,1.43,12,12,0,0,0-3.28,4.3l-.2-5.73c-4.2.44-7.18.67-8.92.69-1,0-1.43.28-1.43.79a.69.69,0,0,0,.27.65,4.42,4.42,0,0,0,1.3.27,2.7,2.7,0,0,1,1.58.57,2,2,0,0,1,.73,1.09,36.5,36.5,0,0,1,.31,3.83c.12,2.15.17,3.94.17,5.38l-.11,7.12a4.05,4.05,0,0,1-.54,2.55,2.71,2.71,0,0,1-1.91.64c-.93,0-1.4.32-1.4.84s.4.9,1.2.9l1.37-.09c1.84-.13,3.7-.2,5.58-.2.88,0,1.81,0,2.8.13s1.91.16,2.48.16c1,0,1.54-.27,1.54-.8s-.53-.86-1.57-.86c-1.2,0-2-.29-2.33-.87s-.52-3.45-.52-8.63c0-4.1.44-6.87,1.34-8.29s1.69-2.13,2.39-2.13c.52,0,1.11.62,1.8,1.88a6.29,6.29,0,0,0,1.39,1.82,2.63,2.63,0,0,0,1.66.52A2.89,2.89,0,0,0,90.15,410a3.64,3.64,0,0,0,.93-2.52,4.15,4.15,0,0,0-1.3-3.13A4.75,4.75,0,0,0,86.32,403.12Z"/><path class="cls-2" d="M106.27,403.21a12.53,12.53,0,0,0-9.42,3.92,13.42,13.42,0,0,0-3.77,9.7,11.87,11.87,0,0,0,3.29,8.37q3.28,3.56,9.11,3.55a16.21,16.21,0,0,0,5.13-.83,11.11,11.11,0,0,0,4.19-2.45q1.71-1.62,1.71-2.25c0-.53-.25-.8-.74-.8a2,2,0,0,0-1,.6,10.17,10.17,0,0,1-6.79,3,6.19,6.19,0,0,1-5.34-2.81,11.57,11.57,0,0,1-2-6.85q0-.37,0-1.2l12.37-.17a16.37,16.37,0,0,0,3.5-.2c.36-.13.55-.54.55-1.22a11.26,11.26,0,0,0-2.78-6.79C112.5,404.4,109.81,403.21,106.27,403.21Zm3.44,9.46c-.48.31-1.8.46-3.95.46l-4.87-.06c.41-5.45,2.09-8.18,5-8.18a3.92,3.92,0,0,1,3.2,1.8,6.72,6.72,0,0,1,1.34,4.13A2,2,0,0,1,109.71,412.67Z"/><path class="cls-2" d="M182.6,394.21q1-2.2,4.26-2.21c.61,0,.92-.26.92-.79s-.39-.92-1.17-.92l-.8,0q-5.79.35-12.64.34-3.66,9.75-10.81,25.75-.26-.6-2.23-4.05-2.44-4.37-4.41-8.31c-1.3-2.63-2.62-5.23-3.95-7.78s-2.25-4.43-2.74-5.61q-9.09,0-12-.25l-.62,0c-.69,0-1,.27-1,.8s.31.81.94.94a7.85,7.85,0,0,1,3.62,1.45,4.47,4.47,0,0,1,1.4,2.77,59.34,59.34,0,0,1,.28,7.36L141.48,420a10,10,0,0,1-.84,4.77c-.56,1-1.75,1.62-3.58,2a5.59,5.59,0,0,0-1.3.38.62.62,0,0,0-.24.56c0,.55.33.82,1,.82.13,0,.33,0,.6-.05a48.67,48.67,0,0,1,6.13-.29c1,0,2.62.08,4.9.25a5.76,5.76,0,0,0,.69,0c.58,0,.88-.25.88-.75s-.36-.72-1.08-.79c-2.19-.19-3.52-.85-4-2s-.71-3.78-.71-8q0-12,.14-19.09,12.8,24.6,14.87,29c.48,1,.89,1.51,1.23,1.51s.65-.41,1-1.23L164,419.4q1.84-5,9.59-23,0,1.49,0,11.28l-.11,12.75a16.74,16.74,0,0,1-.34,3.85,3.13,3.13,0,0,1-1,1.8,5.42,5.42,0,0,1-2.17.74c-1,.15-1.47.45-1.47.88a1,1,0,0,0,.54.8q6.38-.28,10-.28l8,.05a.82.82,0,0,0,.52-.71c0-.53-.41-.81-1.23-.82a4.25,4.25,0,0,1-3.66-1.8q-1.12-1.71-1.13-6l0-14C181.59,399.27,181.93,395.69,182.6,394.21Z"/><path class="cls-2" d="M203.74,426.75a3.41,3.41,0,0,1-2-.82,3.64,3.64,0,0,1-.61-2.48l.08-6.13q0-10.23-.11-14.23l-8.9.57-.59.06c-1,.08-1.43.34-1.43.8s.47.73,1.4.83c1.19.13,1.94.39,2.22.79s.48,2,.58,4.81.16,5.87.16,9.22a31,31,0,0,1-.26,5.14c-.17.85-1,1.34-2.45,1.47-1.1.1-1.65.39-1.65.89s.42.77,1.25.77c.23,0,.66-.05,1.29-.13a29.3,29.3,0,0,1,3.08-.16q3.08,0,6.21.2c1,.06,1.68.09,2.08.09.84,0,1.26-.26,1.26-.77S204.8,426.89,203.74,426.75Z"/><path class="cls-2" d="M196.58,397.56a4.11,4.11,0,1,0-2.9-1.21A3.9,3.9,0,0,0,196.58,397.56Z"/><path class="cls-2" d="M236.24,426.78a2.33,2.33,0,0,1-1.8-1,7.39,7.39,0,0,1-.43-3.1l.26-11.38a11.69,11.69,0,0,0-.64-4.36,5.84,5.84,0,0,0-2.44-2.65,7.4,7.4,0,0,0-4-1.11,9.17,9.17,0,0,0-4.86,1.37,14.51,14.51,0,0,0-4.21,4.1,16,16,0,0,0-1.25-5.56,63.11,63.11,0,0,1-7.67.37q-1.68,0-1.68.69c0,.28.39.58,1.17.88a3.18,3.18,0,0,1,2.05,2,34.78,34.78,0,0,1,.43,7.21q0,4.58-.24,7.87c-.17,2.19-.42,3.5-.76,3.92a2.9,2.9,0,0,1-2,.8c-.62.08-.94.35-.94.83s.35.82,1.06.82c.17,0,.4,0,.68-.05a64.34,64.34,0,0,1,6.73-.29c.15,0,1.14.08,3,.23q.69.06,1.26.06c.78,0,1.17-.27,1.17-.8s-.27-.73-.8-.83a4.48,4.48,0,0,1-1.76-.55,3.07,3.07,0,0,1-.69-1.62,21,21,0,0,1-.29-4.13q0-7.35,2.07-10.9c1.38-2.37,2.87-3.55,4.49-3.55a2.62,2.62,0,0,1,2.66,1.63,17.26,17.26,0,0,1,.7,6c0,2.64-.06,5.31-.18,8s-.38,4.18-.76,4.48a3.47,3.47,0,0,1-1.54.66c-.7.13-1.05.41-1.05.83s.39.77,1.17.77h1.39c2.07-.19,3.33-.29,3.77-.29s1,0,1.79.06c2.13.15,3.51.23,4.13.23s1.12-.25,1.12-.75S237,426.92,236.24,426.78Z"/><path class="cls-2" d="M268,426.81a3.07,3.07,0,0,1-2.29-1,8.26,8.26,0,0,1-.5-3.67l.14-12.58.06-20.24h-7.53a12.91,12.91,0,0,0-2.46.13.58.58,0,0,0-.39.62c0,.41.37.68,1.12.79a3.6,3.6,0,0,1,2,.76,7.83,7.83,0,0,1,.46,3.22q.07,2.76.08,11a8.3,8.3,0,0,0-2.69-1.92,7.9,7.9,0,0,0-3.21-.65,11.58,11.58,0,0,0-8.38,3.78,13.06,13.06,0,0,0-3.76,9.64,12,12,0,0,0,3.29,8.74,10.35,10.35,0,0,0,7.65,3.39,7.65,7.65,0,0,0,4.11-1.09,8.63,8.63,0,0,0,3-3.28v3.91h9.24c.74,0,1.11-.25,1.11-.74S268.67,426.89,268,426.81Zm-10.87-2.89c-1,1.6-2.24,2.41-3.66,2.41s-2.71-.84-3.67-2.52-1.44-4.33-1.44-8,.43-6.34,1.29-8.16a4.15,4.15,0,0,1,7.72-.15c.86,1.71,1.28,4.27,1.28,7.68C258.61,419.42,258.11,422.32,257.09,423.92Z"/><path class="cls-2" d="M289.25,414.65a43.08,43.08,0,0,0-4.52-2.29,28.85,28.85,0,0,1-5.11-2.77,2.78,2.78,0,0,1-1.31-2.19,2.29,2.29,0,0,1,1-1.77,4.15,4.15,0,0,1,2.68-.83q4.56,0,7,5.31c.48,1.06.94,1.59,1.4,1.59s.66-.37.66-1.11a39.39,39.39,0,0,0-.26-4,15.25,15.25,0,0,0-.4-2.67.55.55,0,0,0-.51-.26c-.37,0-.64.27-.83.8s-.32.63-.57.63a1.48,1.48,0,0,1-.66-.23,11.61,11.61,0,0,0-5.84-1.71,9.38,9.38,0,0,0-6.1,2,6.42,6.42,0,0,0-2.48,5.23,6,6,0,0,0,1.71,4.48,25.08,25.08,0,0,0,6.24,3.93,18.57,18.57,0,0,1,4.09,2.47,3.05,3.05,0,0,1,1.07,2.35,2.9,2.9,0,0,1-1.15,2.48,4.59,4.59,0,0,1-2.81.85q-4.72,0-7.47-6.41c-.51-1.18-1-1.77-1.45-1.77s-.69.4-.69,1.2c0,2.06,0,3.85.1,5.35a10.8,10.8,0,0,0,.26,2.55.55.55,0,0,0,.53.28c.41,0,.78-.37,1.08-1.12q.19-.48.57-.48a4.21,4.21,0,0,1,1.4.63,11.59,11.59,0,0,0,6.07,1.48,9.76,9.76,0,0,0,5-1.26,8.48,8.48,0,0,0,3.22-3.21,8.18,8.18,0,0,0,1.07-4,6.31,6.31,0,0,0-.88-3.21A6.7,6.7,0,0,0,289.25,414.65Z"/><path class="cls-2" d="M371.19,390.44c-.27,0-.79,0-1.57.09-1.39.13-3,.19-4.9.19l-4.82-.14c-.86,0-1.28.26-1.28.77s.47.74,1.42.8a3.46,3.46,0,0,1,2,.77,2.72,2.72,0,0,1,1,2.33,8.15,8.15,0,0,1-.32,2.17c-.21.76-1.18,3.55-2.93,8.38s-3.17,8.59-4.27,11.29q-8-18.45-8-21.92a3,3,0,0,1,.88-2.14,3.65,3.65,0,0,1,2.74-.91c.7,0,1.05-.26,1.05-.77s-.12-.63-.37-.69-1.34-.08-3.28-.08l-5.55.14-6.82-.14a11.91,11.91,0,0,0-2.52.14.59.59,0,0,0-.36.6c0,.46.31.73.94.83a5.44,5.44,0,0,1,2.5.85c.51.4,1.19,1.65,2.05,3.74s1.49,3.55,1.89,4.38l-6.14,16.6-4.85-10.52q-3.92-8.67-4.44-10a6.61,6.61,0,0,1-.53-2.25,2.29,2.29,0,0,1,1-1.86,4,4,0,0,1,2.2-.87c.81-.06,1.22-.35,1.22-.86s-.34-.83-1-.83c-1.14,0-2.77.06-4.88.17-1.46.08-2.63.12-3.5.12l-7.19-.14a5.79,5.79,0,0,0-1.75.15.62.62,0,0,0-.33.62c0,.41.29.7.88.85a6.35,6.35,0,0,1,2.54,1.36q1.14,1,3.44,5.45t6.6,14L331,429h2.09l4.2-11.72L342,404.37q2.7,6.38,4.88,12.12,4.17,11.14,4.82,12.49h2l4.84-13.06,4.81-12.83a47.06,47.06,0,0,1,3.57-8,8.25,8.25,0,0,1,2.13-2.4,4.82,4.82,0,0,1,2.05-.66c.78-.07,1.17-.35,1.17-.83S371.93,390.44,371.19,390.44Z"/><path class="cls-2" d="M387.09,426.75a3.41,3.41,0,0,1-2-.82,3.7,3.7,0,0,1-.61-2.48l.09-6.13q0-10.23-.12-14.23l-8.89.57-.6.06c-.95.08-1.43.34-1.43.8s.47.73,1.4.83c1.2.13,1.94.39,2.23.79s.47,2,.58,4.81.16,5.87.16,9.22a32.14,32.14,0,0,1-.26,5.14c-.17.85-1,1.34-2.45,1.47-1.1.1-1.66.39-1.66.89s.42.77,1.26.77c.23,0,.65-.05,1.28-.13a29.44,29.44,0,0,1,3.08-.16q3.08,0,6.22.2c1,.06,1.68.09,2.08.09.83,0,1.25-.26,1.25-.77S388.16,426.89,387.09,426.75Z"/><path class="cls-2" d="M379.94,397.56a4.11,4.11,0,1,0-2.91-1.21A3.94,3.94,0,0,0,379.94,397.56Z"/><path class="cls-2" d="M410.84,424.47a1.45,1.45,0,0,0-.63.2,8.47,8.47,0,0,1-3.73,1.4,3.66,3.66,0,0,1-2.51-.86,3.79,3.79,0,0,1-1.24-2.1,20.64,20.64,0,0,1-.27-3.94l.31-12.57q6.93-.41,7.26-.54t.75-2.28a10.43,10.43,0,0,0-2.68-.29c-2.39,0-4.17,0-5.33.09v-6.64c0-.92-.27-1.37-.82-1.37a.72.72,0,0,0-.62.3,13.09,13.09,0,0,0-.81,1.69,12,12,0,0,1-3.58,5,12.3,12.3,0,0,1-4.74,2.17c-.9.23-1.34.53-1.34.91s.39.73,1.17.83a39.34,39.34,0,0,0,4,.14q-.24,6.36-.23,12.74,0,5.79,2.09,7.59a8.63,8.63,0,0,0,5.78,1.79,10.08,10.08,0,0,0,5.41-1.42c1.54-.95,2.31-1.7,2.31-2.26Q411.38,424.47,410.84,424.47Z"/><path class="cls-2" d="M442.51,426.84c-1.54-.15-2.31-1.21-2.31-3.17l.09-9c0-3.58-.33-6.08-1-7.52a6.16,6.16,0,0,0-2.78-3.08,8.11,8.11,0,0,0-3.79-.93,9.12,9.12,0,0,0-4.54,1.15,11.84,11.84,0,0,0-3.75,3.47q-.09-1.11-.09-6l0-7.61c0-1.37,0-3,.12-4.9q-5.38.23-9.75.23c-.82,0-1.23.25-1.23.77s.48.75,1.43,1.05A3.45,3.45,0,0,1,417,393c.41.8.62,2.57.62,5.28q0,13.32-.2,19.79c-.13,4.31-.38,6.82-.75,7.51a2.42,2.42,0,0,1-2,1.21c-.78.12-1.17.39-1.17.83a.72.72,0,0,0,.83.8,21.35,21.35,0,0,0,2.53-.12,36.56,36.56,0,0,1,4.2-.23c.74,0,1.58.05,2.53.13,1.16.11,2,.16,2.65.16.82,0,1.23-.25,1.23-.74s-.36-.84-1.08-.91a2.51,2.51,0,0,1-1.42-.57,4.52,4.52,0,0,1-.64-2.15,31.62,31.62,0,0,1-.22-4,47.28,47.28,0,0,1,.51-7.57,8.85,8.85,0,0,1,2.16-4.8,4.75,4.75,0,0,1,3.37-1.72,2.65,2.65,0,0,1,2.72,2c.45,1.36.67,4.23.67,8.63a53.49,53.49,0,0,1-.37,8.64,2,2,0,0,1-1.68,1.63c-.88.13-1.31.42-1.31.86s.39.77,1.17.77c.58,0,1.28,0,2.08-.12,1.14-.11,1.93-.17,2.36-.17a57.24,57.24,0,0,1,5.9.23,7.44,7.44,0,0,0,.77.06c.65,0,1-.28,1-.83S443.12,426.9,442.51,426.84Z"/><path class="cls-2" d="M492,392.83q-3.48-2.65-12.33-2.65l-11.63.17c-1.4,0-2.64,0-3.7-.08l-.74,0c-1.18,0-1.77.31-1.77.94s.33.8,1,.8a3.78,3.78,0,0,1,3.1,1.09,4.52,4.52,0,0,1,.89,2.92l0,9q0,4.85,0,11.21a58.47,58.47,0,0,1-.33,7.84,3.77,3.77,0,0,1-1,2.05,4.31,4.31,0,0,1-2.23.81c-1,.15-1.57.44-1.57.85s.31.8.92.8,1.82-.06,3.36-.17c1.86-.13,3.33-.2,4.39-.2s2.67.07,5.1.2c1.81.11,3,.17,3.45.17,1.1,0,1.66-.25,1.66-.74a.73.73,0,0,0-.35-.7,4.71,4.71,0,0,0-1.65-.21,4.11,4.11,0,0,1-2.94-1.07c-.64-.68-1-2.15-1-4.43l0-10.84c1.87.08,3.45.12,4.76.12q8.5,0,12.25-2.86a9.08,9.08,0,0,0,3.75-7.59A8.72,8.72,0,0,0,492,392.83Zm-8,13.09q-2.26,2.73-6.79,2.73c-.59,0-1.42,0-2.51-.14V392.72a27.14,27.14,0,0,1,4.39-.49,7.47,7.47,0,0,1,5.09,1.8,6.71,6.71,0,0,1,2.07,5.37A9.92,9.92,0,0,1,484,405.92Z"/><path class="cls-2" d="M526.69,426.5c-1.12-.1-1.74-.42-1.85-1s-.17-3.77-.17-9.7q0-11.07-.12-12.18c-2.28.14-4.74.2-7.38.2A10.75,10.75,0,0,0,515,404a.57.57,0,0,0-.41.61c0,.54.57.83,1.71.89s1.65.32,1.83.85a12.17,12.17,0,0,1,.28,3.31l-.06,6.3a16.86,16.86,0,0,1-.73,5.87,6.5,6.5,0,0,1-2.25,2.91,5.12,5.12,0,0,1-3,1.11,3,3,0,0,1-2.24-1.08,5.21,5.21,0,0,1-1.12-3.24c-.1-1.43-.14-4.71-.14-9.85q0-5.07-.15-8c-.57.12-3.4.17-8.49.17-.74,0-1.11.26-1.11.77s.41.63,1.25.75,1.51.46,1.73,1a23.3,23.3,0,0,1,.32,5.34v8.81q0,8.16,7.27,8.16a9.38,9.38,0,0,0,4.58-1.2,14.79,14.79,0,0,0,4.15-3.59,21.56,21.56,0,0,0-.2,3,2.82,2.82,0,0,0,.12,1.1c.09.12.31.18.67.18l.77,0c.27,0,1.67,0,4.19,0,.73,0,1.35,0,1.89.05l.71,0c.76,0,1.14-.27,1.14-.83S527.36,426.57,526.69,426.5Z"/><path class="cls-2" d="M548,403.12a6.6,6.6,0,0,0-4.13,1.43,12,12,0,0,0-3.28,4.3l-.2-5.73q-6.3.66-8.92.69c-1,0-1.43.28-1.43.79a.69.69,0,0,0,.27.65,4.51,4.51,0,0,0,1.3.27,2.68,2.68,0,0,1,1.58.57,2,2,0,0,1,.73,1.09,36.5,36.5,0,0,1,.31,3.83c.12,2.15.17,3.94.17,5.38l-.11,7.12a4.05,4.05,0,0,1-.54,2.55,2.71,2.71,0,0,1-1.91.64c-.93,0-1.4.32-1.4.84s.4.9,1.2.9l1.37-.09c1.84-.13,3.7-.2,5.59-.2.87,0,1.8,0,2.79.13s1.91.16,2.48.16c1,0,1.54-.27,1.54-.8s-.52-.86-1.57-.86c-1.2,0-2-.29-2.32-.87s-.53-3.45-.53-8.63c0-4.1.45-6.87,1.34-8.29s1.69-2.13,2.39-2.13c.52,0,1.12.62,1.8,1.88a6.12,6.12,0,0,0,1.4,1.82,2.58,2.58,0,0,0,1.65.52,2.92,2.92,0,0,0,2.27-1.05,3.67,3.67,0,0,0,.92-2.52,4.18,4.18,0,0,0-1.29-3.13A4.77,4.77,0,0,0,548,403.12Z"/><path class="cls-2" d="M568,403.21a12.5,12.5,0,0,0-9.42,3.92,13.43,13.43,0,0,0-3.78,9.7,11.92,11.92,0,0,0,3.29,8.37q3.3,3.56,9.11,3.55a16.12,16.12,0,0,0,5.13-.83,11.11,11.11,0,0,0,4.19-2.45q1.71-1.62,1.71-2.25c0-.53-.25-.8-.74-.8-.19,0-.51.2-1,.6a10.13,10.13,0,0,1-6.78,3,6.2,6.2,0,0,1-5.35-2.81,11.57,11.57,0,0,1-2-6.85q0-.37,0-1.2l12.37-.17a16.43,16.43,0,0,0,3.51-.2c.36-.13.54-.54.54-1.22a11.26,11.26,0,0,0-2.78-6.79C574.23,404.4,571.53,403.21,568,403.21Zm3.43,9.46c-.48.31-1.8.46-3.95.46l-4.87-.06q.63-8.18,5-8.18a3.9,3.9,0,0,1,3.19,1.8,6.72,6.72,0,0,1,1.34,4.13A2,2,0,0,1,571.43,412.67Z"/><path class="cls-2" d="M641.06,410.11l-13.16.28h-4.31c-.67,0-1,.28-1,.83s.35.75,1.06.82a12.48,12.48,0,0,1,3.6.77,2.69,2.69,0,0,1,1.28,1.64,26.28,26.28,0,0,1,.39,6,6.92,6.92,0,0,1-.65,3.32,5.93,5.93,0,0,1-2.9,2.16,10.82,10.82,0,0,1-4.46,1q-5.16,0-9-4.95t-3.81-12.7a21.08,21.08,0,0,1,3.44-12.06,10.88,10.88,0,0,1,9.54-5.1,13.13,13.13,0,0,1,8.37,2.88,21.08,21.08,0,0,1,5.86,7.47c.32.66.72,1,1.19,1s.77-.29.77-.88a9.09,9.09,0,0,0-.06-.91l-.83-8.27c-.11-1.2-.42-1.79-.94-1.79s-.79.36-1.05,1.08c-.21.55-.51.83-.89.83a3.11,3.11,0,0,1-1.22-.32,57.35,57.35,0,0,0-6.37-2.41,22,22,0,0,0-6.29-.84q-9.84,0-15.49,6a19.91,19.91,0,0,0-5.66,14.19,17.6,17.6,0,0,0,2.82,10,19.06,19.06,0,0,0,7.44,6.51A23.15,23.15,0,0,0,619.25,429a30.09,30.09,0,0,0,7-.84,29.7,29.7,0,0,0,6.84-2.57,18.39,18.39,0,0,0,3.38-1.94,16.33,16.33,0,0,0,.11-2c.16-5.27.37-8.13.66-8.59a3,3,0,0,1,2-1,18.51,18.51,0,0,0,2.39-.59.57.57,0,0,0,.34-.58C641.94,410.35,641.65,410.11,641.06,410.11Z"/><path class="cls-2" d="M659.36,403.18a13.94,13.94,0,0,0-9.68,3.58,12,12,0,0,0-4,9.36,11.72,11.72,0,0,0,3.76,9.12,13.29,13.29,0,0,0,9.29,3.42,13.63,13.63,0,0,0,13.83-13.39,11.22,11.22,0,0,0-3.72-8.71A13.61,13.61,0,0,0,659.36,403.18Zm4,21a4.37,4.37,0,0,1-4.07,2.66q-2.78,0-4.35-3.33a19.76,19.76,0,0,1-1.58-8.52,16.06,16.06,0,0,1,1.39-7.4,4.31,4.31,0,0,1,4-2.64q2.89,0,4.46,3.78a22.17,22.17,0,0,1,1.55,8.46A15.33,15.33,0,0,1,663.35,424.21Z"/><path class="cls-2" d="M689.86,426.75a2.48,2.48,0,0,1-2.28-1.14q-.57-1-.6-12.51l-.08-23.92a57.28,57.28,0,0,1-9.52,1.46,6.77,6.77,0,0,0-1.76.27.58.58,0,0,0-.35.58c0,.46.52.76,1.57.91,1.72.29,2.77.83,3.12,1.62s.52,3,.52,6.71l-.08,8.91.11,11.21a32.2,32.2,0,0,1-.15,4.06,2,2,0,0,1-.89,1.36,4.75,4.75,0,0,1-2.29.57c-1,.06-1.46.33-1.46.83s.43.77,1.29.77a10.09,10.09,0,0,0,1-.07q2-.22,6.25-.22c1.72,0,3.51.08,5.35.23.44,0,.77.06,1,.06.82,0,1.23-.3,1.23-.89S691.19,426.81,689.86,426.75Z"/><path class="cls-2" d="M722.39,426.81a3.1,3.1,0,0,1-2.3-1,8.31,8.31,0,0,1-.49-3.67l.14-12.58.06-20.24h-7.53a13,13,0,0,0-2.47.13.58.58,0,0,0-.38.62c0,.41.37.68,1.11.79a3.57,3.57,0,0,1,2,.76,7.83,7.83,0,0,1,.46,3.22q.09,2.76.09,11a8.33,8.33,0,0,0-2.7-1.92,7.9,7.9,0,0,0-3.21-.65,11.6,11.6,0,0,0-8.38,3.78,13.1,13.1,0,0,0-3.76,9.64,12,12,0,0,0,3.29,8.74,10.37,10.37,0,0,0,7.66,3.39,7.61,7.61,0,0,0,4.1-1.09,8.66,8.66,0,0,0,3-3.28v3.91h9.23c.74,0,1.11-.25,1.11-.74S723.09,426.89,722.39,426.81Zm-10.88-2.89a4.35,4.35,0,0,1-3.66,2.41q-2.22,0-3.66-2.52t-1.44-8q0-5.43,1.28-8.16a4.15,4.15,0,0,1,7.73-.15q1.28,2.56,1.28,7.68Q713,421.52,711.51,423.92Z"/><path class="cls-30" d="M400.94,34.1a5.25,5.25,0,0,1-5.62,2.67A16.59,16.59,0,0,1,387,32.68C392,31.5,398.32,31.78,400.94,34.1Z"/><path class="cls-30" d="M400.94,34.1a5.25,5.25,0,0,1-5.62,2.67A16.59,16.59,0,0,1,387,32.68C392,31.5,398.32,31.78,400.94,34.1Z"/><path class="cls-31" d="M347.24,30.33c-4.79,4.42-14.73,18.39-17.6,26.83C366.88,33,446.79,31.39,431.89,61.66q26.49-22-6-36.59a20.76,20.76,0,0,0-8-10.84c-8.34-5.74-21.62-6.37-37.82-3.46-6.48,1.31-12.31,2.49-17.61,3.46-18,3.31-29.87,4.28-40.53,0q-1.65-.66-3.27-1.5c.32.51.64,1,1,1.5C325.77,23.23,334.56,29,347.24,30.33ZM416,24.89a5.79,5.79,0,0,1-6.2,2.94,18.35,18.35,0,0,1-9.11-4.51C406.16,22,413.09,22.33,416,24.89Z"/><path class="cls-32" d="M521.66,7.54h-.15l-2,.08h-.16a30.1,30.1,0,0,0-21.11,11.1,29.49,29.49,0,0,0-3.65,5.71l-1.36,3.25c-.12.34-.24.69-.35,1a138.78,138.78,0,0,1-120,93.08c-22.71-24-.91-64.91,43.33-74.43-28.52-.92-70.42,18.49-83.93,49.77a12.07,12.07,0,0,0-.54,1.31c-3.79,9.13-4.75,15.46-3.89,19.6-1.72-.43-3.44-.9-5.14-1.4,3.71-51.6,69.42-74.67,94-71.86-14.81-4.84-41.6-1.85-65,6.57a98.73,98.73,0,0,0-50,39.47c-3.77,5.89-5.79,10.62-6.51,14.4a139,139,0,0,1-64.34-75.85c-.29-.82-.57-1.63-.83-2.46s-.69-1.68-1.1-2.49A30.09,30.09,0,0,0,213.3,9.9a29.94,29.94,0,0,0-9.07-2.16h-.06l-2.32-.09h-.07L0,.12A24.3,24.3,0,0,0,24.31,24.43H194.23a32,32,0,0,1,29.28,19.35q2,4.68,4.39,9.2a150.71,150.71,0,0,0,133.82,81.31A150.7,150.7,0,0,0,495.61,52.85c1.55-3,3-6.05,4.36-9.15a31.84,31.84,0,0,1,29.14-19.27H699A24.43,24.43,0,0,0,723.45,0Z"/><polygon class="cls-33" points="170.53 45.35 168.02 45.28 170.43 45.34 170.53 45.35"/><path class="cls-34" d="M230.83,103.48H72.19a24,24,0,0,1-24-24v-.35h.34l148.65,5.17h.11L216,84.9A174.88,174.88,0,0,0,230.83,103.48Z"/><path class="cls-35" d="M279.13,140.73a5.57,5.57,0,0,1-3.91,1.6H102.33a24,24,0,0,1-24-24V118l.34,0,148.65,5.16-2.4-.07,2.51.08,25.6.74a174.64,174.64,0,0,0,15.21,10.57Q273.61,137.82,279.13,140.73Z"/><path class="cls-36" d="M203.68,64.47H45.4A24,24,0,0,1,24,51.22C22,47.56,20.56,40.41,21.2,36L195.76,46.08c2.23,4.15.31-.27,3.5,8.14A100.81,100.81,0,0,0,203.68,64.47Z"/><path class="cls-37" d="M702,35.17c-.73,22.64-14.84,29.38-24.23,29.38h-158c1.7-3.32,2.93-6.93,4.82-10.15l4.84-8.25Z"/><path class="cls-38" d="M674.89,79.25v.35a24,24,0,0,1-24,24H492.55A175.54,175.54,0,0,0,507.44,85l18.36-.53h0l148.71-5.17Z"/><path class="cls-39" d="M644.75,118.1v.35a24,24,0,0,1-24,24H447.91a5.59,5.59,0,0,1-3.86-1.54q5.7-3,11.18-6.39A173.32,173.32,0,0,0,470.29,124h0l25.34-.74h.05l148.71-5.16Z"/></g></g></svg>